<svg width="24" height="20" viewBox="0 0 24 20" fill="none" xmlns="http://www.w3.org/2000/svg">
<path d="M1.8 0C0.80625 0 0 0.839844 0 1.875V14.375C0 15.4102 0.80625 16.25 1.8 16.25H2.4C2.4 18.3203 4.0125 20 6 20C7.9875 20 9.6 18.3203 9.6 16.25H14.4C14.4 18.3203 16.0125 20 18 20C19.9875 20 21.6 18.3203 21.6 16.25H22.8C23.4637 16.25 24 15.6914 24 15C24 14.3086 23.4637 13.75 22.8 13.75V9.26953C22.8 8.60547 22.5487 7.96875 22.0987 7.5L19.2 4.48047C18.75 4.01172 18.1387 3.75 17.5012 3.75H15.6V1.875C15.6 0.839844 14.7937 0 13.8 0H1.8ZM15.6 6.25H17.5012L20.4 9.26953V10H15.6V6.25ZM4.2 16.25C4.2 14.8066 5.7 13.9045 6.9 14.6262C7.45692 14.9611 7.8 15.5801 7.8 16.25C7.8 17.6934 6.3 18.5955 5.1 17.8738C4.54308 17.5389 4.2 16.9199 4.2 16.25ZM18 14.375C19.3856 14.3749 20.2517 15.9374 19.5589 17.1874C19.2374 17.7676 18.6431 18.125 18 18.125C16.6144 18.125 15.7483 16.5625 16.4412 15.3125C16.7627 14.7323 17.3569 14.375 18 14.375Z" fill="#F9FAFF"/>
</svg>
