<svg width="24" height="18" viewBox="0 0 24 18" fill="none" xmlns="http://www.w3.org/2000/svg">
<path d="M18 11.5C17.0946 11.499 16.2012 11.7078 15.39 12.11C15.3252 12.139 15.2675 12.1818 15.2209 12.2353C15.1743 12.2888 15.1399 12.3519 15.12 12.42C15.0895 12.5562 15.1109 12.6988 15.18 12.82C16.0464 14.227 16.5035 15.8476 16.5 17.5C16.5026 17.6318 16.5561 17.7575 16.6493 17.8507C16.7425 17.9439 16.8682 17.9974 17 18H23.5C23.6326 18 23.7598 17.9473 23.8536 17.8536C23.9473 17.7598 24 17.6326 24 17.5C24 15.9087 23.3679 14.3826 22.2426 13.2574C21.1174 12.1321 19.5913 11.5 18 11.5Z" fill="#F9FAFF"/>
<path d="M14.19 7.25C14.19 7.74246 14.287 8.23009 14.4755 8.68506C14.6639 9.14003 14.9401 9.55343 15.2883 9.90165C15.6366 10.2499 16.05 10.5261 16.5049 10.7145C16.9599 10.903 17.4475 11 17.94 11C18.4325 11 18.9201 10.903 19.3751 10.7145C19.83 10.5261 20.2434 10.2499 20.5917 9.90165C20.9399 9.55343 21.2161 9.14003 21.4045 8.68506C21.593 8.23009 21.69 7.74246 21.69 7.25C21.69 6.75754 21.593 6.26991 21.4045 5.81494C21.2161 5.35997 20.9399 4.94657 20.5917 4.59835C20.2434 4.25013 19.83 3.97391 19.3751 3.78545C18.9201 3.597 18.4325 3.5 17.94 3.5C17.4475 3.5 16.9599 3.597 16.5049 3.78545C16.05 3.97391 15.6366 4.25013 15.2883 4.59835C14.9401 4.94657 14.6639 5.35997 14.4755 5.81494C14.287 6.26991 14.19 6.75754 14.19 7.25Z" fill="#F9FAFF"/>
<path d="M2.75 4.75C2.75 6.00978 3.25045 7.21796 4.14124 8.10876C5.03204 8.99955 6.24022 9.5 7.5 9.5C8.75978 9.5 9.96796 8.99955 10.8588 8.10876C11.7496 7.21796 12.25 6.00978 12.25 4.75C12.25 3.49022 11.7496 2.28204 10.8588 1.39124C9.96796 0.500445 8.75978 0 7.5 0C6.24022 0 5.03204 0.500445 4.14124 1.39124C3.25045 2.28204 2.75 3.49022 2.75 4.75Z" fill="#F9FAFF"/>
<path d="M15 17.5C15 15.5109 14.2098 13.6032 12.8033 12.1967C11.3968 10.7902 9.48912 10 7.5 10C5.51088 10 3.60322 10.7902 2.1967 12.1967C0.790176 13.6032 0 15.5109 0 17.5C0 17.6326 0.0526784 17.7598 0.146447 17.8536C0.240215 17.9473 0.367392 18 0.5 18H14.5C14.6326 18 14.7598 17.9473 14.8536 17.8536C14.9473 17.7598 15 17.6326 15 17.5Z" fill="#F9FAFF"/>
</svg>
