<svg width="12" height="12" viewBox="0 0 12 12" fill="none" xmlns="http://www.w3.org/2000/svg">
<path d="M7.54476 1.97452C7.52135 1.95022 7.49321 1.93099 7.46207 1.91802C7.43093 1.90504 7.39745 1.8986 7.36372 1.89909C7.29811 1.89869 7.23495 1.92396 7.18772 1.96949L1.69634 7.46089C1.67277 7.48426 1.65406 7.51207 1.6413 7.54271C1.62853 7.57335 1.62196 7.60622 1.62196 7.63941C1.62196 7.6726 1.62853 7.70547 1.6413 7.73611C1.65406 7.76675 1.67277 7.79456 1.69634 7.81793L4.18053 10.3021C4.2285 10.3503 4.29361 10.3774 4.36157 10.3776C4.39445 10.3774 4.42697 10.3706 4.4572 10.3576C4.48742 10.3447 4.51475 10.3258 4.53757 10.3021L10.0239 4.81576C10.0703 4.76792 10.0963 4.70389 10.0963 4.63724C10.0963 4.5706 10.0703 4.50657 10.0239 4.45872L7.54476 1.97452Z" fill="#7764FE"/>
<path d="M1.1885 8.41127C1.15616 8.38114 1.11658 8.35988 1.07361 8.34955C1.03063 8.33921 0.985708 8.34017 0.943206 8.35231C0.900704 8.36445 0.862062 8.38738 0.831029 8.41885C0.799996 8.45033 0.777625 8.4893 0.766088 8.53197L0.00674838 11.685C-0.00331442 11.7271 -0.00210526 11.7711 0.0102541 11.8126C0.0226135 11.8541 0.0456868 11.8916 0.0771507 11.9213C0.107456 11.952 0.144999 11.9745 0.186308 11.9868C0.227618 11.9991 0.271363 12.0008 0.313501 11.9917L3.48663 11.2324C3.52988 11.2221 3.56954 11.2003 3.60141 11.1694C3.63328 11.1384 3.65617 11.0993 3.66767 11.0564C3.67935 11.0136 3.67994 10.9685 3.66938 10.9254C3.65882 10.8823 3.63747 10.8426 3.60732 10.81L1.1885 8.41127Z" fill="#7764FE"/>
<path d="M11.6331 1.43143L10.567 0.365333C10.3299 0.131321 10.0101 0.000114441 9.67695 0.000114441C9.34378 0.000114441 9.02401 0.131321 8.78686 0.365333L8.07781 1.07942C8.05375 1.10199 8.03458 1.12926 8.02148 1.15953C8.00837 1.1898 8.00161 1.22244 8.00161 1.25542C8.00161 1.28841 8.00837 1.32105 8.02148 1.35132C8.03458 1.38159 8.05375 1.40886 8.07781 1.43143L10.567 3.94581C10.5896 3.96986 10.6169 3.98903 10.6471 4.00214C10.6774 4.01524 10.7101 4.022 10.743 4.022C10.776 4.022 10.8087 4.01524 10.8389 4.00214C10.8692 3.98903 10.8965 3.96986 10.919 3.94581L11.6331 3.20658C11.868 2.97093 12 2.65175 12 2.319C12 1.98626 11.868 1.66708 11.6331 1.43143Z" fill="#7764FE"/>
</svg>
