<svg width="18" height="18" viewBox="0 0 18 18" fill="none" xmlns="http://www.w3.org/2000/svg">
<path d="M9.56683 3.75001H5.06476C4.9155 3.75001 4.77236 3.80927 4.66683 3.91476C4.56129 4.02025 4.502 4.16332 4.502 4.31251C4.502 4.46169 4.56129 4.60477 4.66683 4.71026C4.77236 4.81575 4.9155 4.87501 5.06476 4.87501H9.56683C9.71608 4.87501 9.85922 4.81575 9.96476 4.71026C10.0703 4.60477 10.1296 4.46169 10.1296 4.31251C10.1296 4.16332 10.0703 4.02025 9.96476 3.91476C9.85922 3.80927 9.71608 3.75001 9.56683 3.75001Z" fill="#7764FE"/>
<path d="M10.1297 6.93749C10.1278 6.78891 10.0679 6.64696 9.96276 6.54189C9.85765 6.43682 9.71563 6.37693 9.56698 6.37499H3.56422C3.41497 6.37499 3.27183 6.43426 3.16629 6.53974C3.06076 6.64523 3.00146 6.78831 3.00146 6.93749C3.00146 7.08668 3.06076 7.22975 3.16629 7.33524C3.27183 7.44073 3.41497 7.49999 3.56422 7.49999H9.56698C9.71563 7.49805 9.85765 7.43816 9.96276 7.33309C10.0679 7.22802 10.1278 7.08607 10.1297 6.93749Z" fill="#7764FE"/>
<path d="M3.56422 9C3.41497 9 3.27183 9.05926 3.16629 9.16475C3.06076 9.27024 3.00146 9.41332 3.00146 9.5625C3.00146 9.71168 3.06076 9.85476 3.16629 9.96025C3.27183 10.0657 3.41497 10.125 3.56422 10.125H7.69112C7.84037 10.125 7.98351 10.0657 8.08905 9.96025C8.19459 9.85476 8.25388 9.71168 8.25388 9.5625C8.25388 9.41332 8.19459 9.27024 8.08905 9.16475C7.98351 9.05926 7.84037 9 7.69112 9H3.56422Z" fill="#7764FE"/>
<path d="M8.4789 13.2375C8.46425 13.204 8.44011 13.1754 8.40944 13.1554C8.37878 13.1355 8.34293 13.1249 8.30632 13.125H1.87586C1.77636 13.125 1.68093 13.0855 1.61058 13.0152C1.54022 12.9448 1.50069 12.8495 1.50069 12.75V1.875C1.50069 1.77554 1.54022 1.68016 1.61058 1.60984C1.68093 1.53951 1.77636 1.5 1.87586 1.5H11.6303C11.7298 1.5 11.8253 1.53951 11.8956 1.60984C11.966 1.68016 12.0055 1.77554 12.0055 1.875V9.4275C12.0054 9.46409 12.016 9.49993 12.036 9.53058C12.056 9.56123 12.0845 9.58536 12.1181 9.6C12.1529 9.61482 12.1914 9.61917 12.2287 9.61251C12.266 9.60585 12.3006 9.58847 12.3282 9.5625L13.2886 8.6025C13.4257 8.45877 13.5034 8.26857 13.5062 8.07V1.5C13.5062 1.10218 13.3481 0.720644 13.0667 0.43934C12.7852 0.158035 12.4035 0 12.0055 0H1.50069C1.10268 0 0.720976 0.158035 0.439542 0.43934C0.158108 0.720644 0 1.10218 0 1.5V13.125C0 13.5228 0.158108 13.9044 0.439542 14.1857C0.720976 14.467 1.10268 14.625 1.50069 14.625H7.4059C7.48613 14.6255 7.56439 14.6003 7.62922 14.553C7.69404 14.5058 7.742 14.439 7.76607 14.3625C7.83511 14.1282 7.96448 13.9161 8.14124 13.7475L8.44138 13.4475C8.46737 13.4199 8.48475 13.3854 8.49142 13.3481C8.49808 13.3108 8.49373 13.2724 8.4789 13.2375Z" fill="#7764FE"/>
<path d="M9.04919 15.0975C9.02503 15.0739 8.99494 15.0572 8.96209 15.0493C8.92924 15.0414 8.89485 15.0424 8.86257 15.0524C8.83029 15.0624 8.8013 15.0809 8.77868 15.106C8.75606 15.1311 8.74064 15.1619 8.73405 15.195L8.25383 17.55C8.24289 17.6106 8.24672 17.6729 8.26501 17.7316C8.2833 17.7904 8.3155 17.8438 8.35888 17.8875C8.39238 17.9235 8.43305 17.9522 8.47828 17.9715C8.52351 17.9909 8.57229 18.0006 8.6215 18H8.69653L11.0526 17.5275C11.086 17.5218 11.117 17.5068 11.1422 17.4842C11.1675 17.4617 11.1858 17.4325 11.1952 17.4C11.2072 17.3678 11.2093 17.3328 11.2013 17.2994C11.1933 17.266 11.1755 17.2357 11.1502 17.2125L9.04919 15.0975Z" fill="#7764FE"/>
<path d="M17.4303 8.82749C17.2483 8.64472 17.032 8.49969 16.7938 8.40072C16.5556 8.30175 16.3002 8.25081 16.0422 8.25081C15.7842 8.25081 15.5288 8.30175 15.2906 8.40072C15.0523 8.49969 14.836 8.64472 14.654 8.82749L9.75429 13.7025C9.7184 13.7362 9.6898 13.7768 9.67025 13.822C9.65069 13.8671 9.6406 13.9158 9.6406 13.965C9.6406 14.0142 9.65069 14.0629 9.67025 14.108C9.6898 14.1532 9.7184 14.1938 9.75429 14.2275L12.0053 16.4775C12.039 16.5134 12.0797 16.542 12.1249 16.5615C12.17 16.581 12.2187 16.5911 12.268 16.5911C12.3172 16.5911 12.3659 16.581 12.411 16.5615C12.4562 16.542 12.4969 16.5134 12.5306 16.4775L17.4153 11.6025C17.5992 11.4216 17.7454 11.2062 17.8457 10.9686C17.946 10.731 17.9984 10.476 17.9998 10.2181C18.0012 9.96025 17.9516 9.70466 17.8539 9.46601C17.7561 9.22737 17.6122 9.01037 17.4303 8.82749Z" fill="#7764FE"/>
</svg>
