<svg width="20" height="15" viewBox="0 0 20 15" fill="none" xmlns="http://www.w3.org/2000/svg">
<path d="M19.0943 1.64871H0.830189C0.610009 1.64871 0.398847 1.56186 0.243157 1.40726C0.0874661 1.25267 0 1.04299 0 0.824356C0 0.605723 0.0874661 0.396045 0.243157 0.241448C0.398847 0.0868515 0.610009 0 0.830189 0H19.0943C19.3145 0 19.5257 0.0868515 19.6814 0.241448C19.8371 0.396045 19.9245 0.605723 19.9245 0.824356C19.9245 1.04299 19.8371 1.25267 19.6814 1.40726C19.5257 1.56186 19.3145 1.64871 19.0943 1.64871Z" fill="#7764FE"/>
<path d="M17.1517 5.79522H2.77284C2.55266 5.79522 2.34149 5.70837 2.1858 5.55377C2.03011 5.39918 1.94265 5.1895 1.94265 4.97087C1.94265 4.75223 2.03011 4.54255 2.1858 4.38796C2.34149 4.23336 2.55266 4.14651 2.77284 4.14651H17.1517C17.3719 4.14651 17.583 4.23336 17.7387 4.38796C17.8944 4.54255 17.9819 4.75223 17.9819 4.97087C17.9819 5.1895 17.8944 5.39918 17.7387 5.55377C17.583 5.70837 17.3719 5.79522 17.1517 5.79522Z" fill="#7764FE"/>
<path d="M12.6272 14.08H7.29735C7.07717 14.08 6.866 13.9931 6.71031 13.8386C6.55462 13.684 6.46716 13.4743 6.46716 13.2556C6.46716 13.037 6.55462 12.8273 6.71031 12.6727C6.866 12.5181 7.07717 12.4313 7.29735 12.4313H12.6272C12.8473 12.4313 13.0585 12.5181 13.2142 12.6727C13.3699 12.8273 13.4573 13.037 13.4573 13.2556C13.4573 13.4743 13.3699 13.684 13.2142 13.8386C13.0585 13.9931 12.8473 14.08 12.6272 14.08Z" fill="#7764FE"/>
<path d="M15.2007 9.93349H4.72377C4.50359 9.93349 4.29243 9.84664 4.13674 9.69204C3.98105 9.53744 3.89358 9.32777 3.89358 9.10913C3.89358 8.8905 3.98105 8.68082 4.13674 8.52623C4.29243 8.37163 4.50359 8.28478 4.72377 8.28478H15.2007C15.4209 8.28478 15.6321 8.37163 15.7878 8.52623C15.9435 8.68082 16.0309 8.8905 16.0309 9.10913C16.0309 9.32777 15.9435 9.53744 15.7878 9.69204C15.6321 9.84664 15.4209 9.93349 15.2007 9.93349Z" fill="#7764FE"/>
</svg>
