<svg width="24" height="22" viewBox="0 0 24 22" fill="none" xmlns="http://www.w3.org/2000/svg">
<path d="M24 6.13055C23.9987 5.89217 23.9379 5.65767 23.8229 5.44724C23.708 5.2368 23.5422 5.05675 23.34 4.92256L16.3402 0.285455C16.0942 0.121688 15.8032 0.0340728 15.5052 0.0340728C15.2072 0.0340728 14.9162 0.121688 14.6702 0.285455L8.82038 4.48418C8.7332 4.54595 8.62818 4.57923 8.52039 4.57923C8.41259 4.57923 8.30757 4.54595 8.22039 4.48418L2.39055 0.285455C2.16427 0.122787 1.8956 0.0253699 1.61521 0.00432016C1.33481 -0.0167296 1.054 0.0394363 0.804799 0.166408C0.555602 0.29338 0.348064 0.486043 0.205869 0.722409C0.0636747 0.958776 -0.00744823 1.22933 0.000617179 1.50318V15.8724C0.00192217 16.1107 0.0626742 16.3452 0.177643 16.5557C0.292612 16.7661 0.458354 16.9462 0.660599 17.0803L7.66041 21.7175C7.90641 21.8812 8.19743 21.9688 8.49539 21.9688C8.79334 21.9688 9.08436 21.8812 9.33036 21.7175L15.1602 17.5382C15.2474 17.4764 15.3524 17.4432 15.4602 17.4432C15.568 17.4432 15.673 17.4764 15.7602 17.5382L21.61 21.7175C21.8697 21.8987 22.1806 21.9974 22.5 22C22.6974 22.0013 22.893 21.9643 23.0756 21.8914C23.2582 21.8184 23.4241 21.7108 23.5636 21.5749C23.7032 21.4389 23.8136 21.2773 23.8885 21.0994C23.9634 20.9216 24.0013 20.731 24 20.5387V6.13055ZM9.50036 6.64686C9.49873 6.57097 9.51608 6.49584 9.55093 6.42795C9.58577 6.36006 9.63706 6.30145 9.70035 6.25719L14.1002 3.05213C14.1394 3.0289 14.1844 3.01661 14.2302 3.01661C14.2761 3.01661 14.3211 3.0289 14.3602 3.05213C14.3939 3.06649 14.4239 3.0879 14.4481 3.11485C14.4723 3.14179 14.4901 3.17359 14.5002 3.208V15.356C14.5019 15.4319 14.4845 15.5071 14.4497 15.575C14.4148 15.6429 14.3635 15.7015 14.3002 15.7457L9.90035 18.9508C9.86118 18.974 9.81621 18.9863 9.77035 18.9863C9.7245 18.9863 9.67952 18.974 9.64036 18.9508C9.6067 18.9364 9.5767 18.915 9.5525 18.8881C9.5283 18.8611 9.5105 18.8293 9.50036 18.7949V6.64686ZM2.00056 2.94497C1.99952 2.8985 2.01215 2.85271 2.03695 2.81301C2.06176 2.77331 2.09771 2.74135 2.14056 2.72091C2.17973 2.69768 2.2247 2.68539 2.27056 2.68539C2.31641 2.68539 2.36138 2.69768 2.40055 2.72091L7.30042 6.23771C7.36195 6.28359 7.41194 6.34253 7.4466 6.41005C7.48125 6.47757 7.49966 6.55189 7.50041 6.62738V18.7949C7.50054 18.8387 7.48853 18.8818 7.46565 18.9195C7.44277 18.9572 7.40987 18.9882 7.37042 19.0092C7.33058 19.0305 7.28587 19.0417 7.24042 19.0417C7.19497 19.0417 7.15026 19.0305 7.11042 19.0092L2.22056 15.7457C2.15278 15.7021 2.09719 15.6428 2.05879 15.5731C2.02039 15.5034 2.00038 15.4254 2.00056 15.3463V2.94497ZM22 19.0579C22.0011 19.1044 21.9884 19.1502 21.9636 19.1899C21.9388 19.2296 21.9029 19.2616 21.86 19.282C21.8209 19.3052 21.7759 19.3175 21.73 19.3175C21.6842 19.3175 21.6392 19.3052 21.6 19.282L16.7002 15.7944C16.6386 15.7485 16.5886 15.6896 16.554 15.6221C16.5193 15.5546 16.5009 15.4802 16.5002 15.4048V3.208C16.5 3.16419 16.5121 3.12116 16.5349 3.08344C16.5578 3.04572 16.5907 3.01471 16.6302 2.99368C16.67 2.97236 16.7147 2.96118 16.7602 2.96118C16.8056 2.96118 16.8503 2.97236 16.8902 2.99368L21.78 6.23771C21.8478 6.2813 21.9034 6.34063 21.9418 6.41035C21.9802 6.48007 22.0002 6.558 22 6.63712V19.0579Z" fill="#F9FAFF"/>
</svg>
