<svg width="23" height="31" viewBox="0 0 23 31" fill="none" xmlns="http://www.w3.org/2000/svg">
<path d="M0.959022 0H21.046C21.046 0 22.0025 0 22.0025 0.842105V1.68421C22.0025 1.68421 22.0025 2.52632 21.046 2.52632H0.959022C0.959022 2.52632 0.0025 2.52632 0.0025 1.68421V0.842105C0.0025 0.842105 0.0025 0 0.959022 0Z" fill="#F9FAFF"/>
<path d="M0.959022 6.73684H21.046C21.046 6.73684 22.0025 6.73684 22.0025 7.57895V8.42105C22.0025 8.42105 22.0025 9.26316 21.046 9.26316H0.959022C0.959022 9.26316 0.0025 9.26316 0.0025 8.42105V7.57895C0.0025 7.57895 0.0025 6.73684 0.959022 6.73684Z" fill="#F9FAFF"/>
<path d="M0.959022 13.4737H21.046C21.046 13.4737 22.0025 13.4737 22.0025 14.3158V15.1579C22.0025 15.1579 22.0025 16 21.046 16H0.959022C0.959022 16 0.0025 16 0.0025 15.1579V14.3158C0.0025 14.3158 0.0025 13.4737 0.959022 13.4737Z" fill="#F9FAFF"/>
<path d="M0 30V24.24H0.756L2.844 28.572L4.92 24.24H5.684V29.996H4.892V26.056L3.032 30H2.652L0.788 26.056V30H0Z" fill="#F9FAFF"/>
<path d="M8.72069 30.12C8.29135 30.12 7.91402 30.0267 7.58869 29.84C7.26602 29.6507 7.01402 29.388 6.83269 29.052C6.65402 28.7133 6.56469 28.3213 6.56469 27.876C6.56469 27.404 6.65269 26.9947 6.82869 26.648C7.00735 26.3013 7.25535 26.0333 7.57269 25.844C7.89002 25.6547 8.25935 25.56 8.68069 25.56C9.12069 25.56 9.49535 25.6627 9.80469 25.868C10.114 26.0707 10.3447 26.36 10.4967 26.736C10.6514 27.112 10.7127 27.5587 10.6807 28.076H9.84469V27.772C9.83935 27.2707 9.74335 26.9 9.55669 26.66C9.37269 26.42 9.09135 26.3 8.71269 26.3C8.29402 26.3 7.97935 26.432 7.76869 26.696C7.55802 26.96 7.45269 27.3413 7.45269 27.84C7.45269 28.3147 7.55802 28.6827 7.76869 28.944C7.97935 29.2027 8.28335 29.332 8.68069 29.332C8.94202 29.332 9.16735 29.2733 9.35669 29.156C9.54869 29.036 9.69802 28.8653 9.80469 28.644L10.6247 28.904C10.4567 29.2907 10.202 29.5907 9.86069 29.804C9.51935 30.0147 9.13935 30.12 8.72069 30.12ZM7.18069 28.076V27.424H10.2647V28.076H7.18069Z" fill="#F9FAFF"/>
<path d="M11.5741 30V25.68H12.4101V27.444H14.5181V25.68H15.3541V30H14.5181V28.232H12.4101V30H11.5741Z" fill="#F9FAFF"/>
<path d="M20.1246 30.12C19.7672 30.12 19.4486 30.0453 19.1686 29.896C18.8912 29.7467 18.6646 29.5333 18.4886 29.256C18.3126 28.976 18.2006 28.644 18.1526 28.26H17.3086V30H16.4726V25.68H17.3086V27.42H18.1486C18.1966 27.028 18.3099 26.6933 18.4886 26.416C18.6672 26.1387 18.8966 25.9267 19.1766 25.78C19.4592 25.6333 19.7792 25.56 20.1366 25.56C20.5659 25.56 20.9379 25.6573 21.2526 25.852C21.5672 26.0467 21.8112 26.316 21.9846 26.66C22.1579 27.0013 22.2446 27.392 22.2446 27.832C22.2446 28.2827 22.1566 28.68 21.9806 29.024C21.8072 29.368 21.5619 29.6373 21.2446 29.832C20.9272 30.024 20.5539 30.12 20.1246 30.12ZM20.1126 29.332C20.5312 29.332 20.8432 29.1933 21.0486 28.916C21.2539 28.6387 21.3566 28.2787 21.3566 27.836C21.3566 27.38 21.2526 27.0187 21.0446 26.752C20.8392 26.4827 20.5299 26.348 20.1166 26.348C19.7139 26.348 19.4099 26.4827 19.2046 26.752C18.9992 27.0187 18.8966 27.3787 18.8966 27.832C18.8966 28.288 18.9992 28.652 19.2046 28.924C19.4126 29.196 19.7152 29.332 20.1126 29.332Z" fill="#F9FAFF"/>
</svg>
