<svg width="24" height="16" viewBox="0 0 24 16" fill="none" xmlns="http://www.w3.org/2000/svg">
<path d="M10.3729 15.5452C10.6552 15.8332 11.0347 15.9963 11.431 16C11.6277 16.0004 11.8224 15.9604 12.0041 15.8823C12.1857 15.8042 12.3506 15.6897 12.4891 15.5452L19.6265 8.15417C19.6498 8.12916 19.6777 8.10926 19.7086 8.09567C19.7394 8.08208 19.7726 8.07508 19.8062 8.07508C19.8397 8.07508 19.8729 8.08208 19.9038 8.09567C19.9347 8.10926 19.9626 8.12916 19.9859 8.15417L20.8643 9.07417C20.9895 9.20424 21.1459 9.29742 21.3175 9.34413C21.489 9.39083 21.6694 9.38936 21.8402 9.33988C22.011 9.2904 22.166 9.19469 22.2892 9.0626C22.4125 8.9305 22.4995 8.7668 22.5413 8.58832L23.9788 2.74788C24.0137 2.57538 24.0054 2.3965 23.9547 2.22824C23.9041 2.05998 23.8127 1.90793 23.6893 1.78654C23.5681 1.65899 23.417 1.56622 23.2507 1.51729C23.0845 1.46837 22.9089 1.46497 22.741 1.50744L17.091 2.95462C16.9202 2.99889 16.7638 3.08915 16.6376 3.21623C16.5113 3.3433 16.4198 3.50269 16.3723 3.67822C16.3205 3.85866 16.3174 4.0503 16.3631 4.23247C16.4089 4.41464 16.5018 4.58042 16.6318 4.71192L17.5102 5.63192C17.5334 5.65426 17.5517 5.68153 17.5638 5.71187C17.5758 5.7422 17.5814 5.77488 17.5801 5.80765C17.5816 5.84199 17.5761 5.87626 17.5641 5.90829C17.552 5.94032 17.5337 5.96941 17.5102 5.99372L10.3729 13.3847C10.1038 13.6753 9.95361 14.0624 9.95361 14.4649C9.95361 14.8675 10.1038 15.2546 10.3729 15.5452Z" fill="#F9FAFF"/>
<path d="M11.5408 0.40137L4.16387 7.63731C4.11722 7.68466 4.0545 7.71119 3.98918 7.71119C3.92386 7.71119 3.86114 7.68466 3.81449 7.63731L3.13569 6.95507C3.01048 6.82499 2.85406 6.73181 2.68254 6.68511C2.51101 6.6384 2.33056 6.63987 2.15976 6.68935C1.98896 6.73883 1.83397 6.83454 1.71075 6.96664C1.58752 7.09873 1.50051 7.26244 1.45866 7.44091L0.0212027 13.2297C-0.0136903 13.4022 -0.00540981 13.5811 0.0452575 13.7493C0.0959248 13.9176 0.187296 14.0696 0.31069 14.191C0.436616 14.3275 0.59622 14.4256 0.772191 14.4748C0.948163 14.524 1.13378 14.5224 1.30892 14.4701L6.90901 13.0229C7.08056 12.9782 7.23756 12.8871 7.36394 12.759C7.49032 12.6308 7.58154 12.4701 7.62826 12.2934C7.67497 12.1168 7.67551 11.9304 7.62982 11.7534C7.58412 11.5765 7.49383 11.4153 7.3682 11.2863L6.28012 10.1596C6.23547 10.1086 6.21059 10.0423 6.21025 9.97349C6.21086 9.94003 6.2183 9.90708 6.23206 9.8768C6.24582 9.84651 6.2656 9.81958 6.29011 9.79776L13.5972 2.65485C13.8761 2.37014 14.0362 1.98359 14.0432 1.57809C14.0501 1.17258 13.9034 0.780389 13.6344 0.485607C13.3654 0.190825 12.9955 0.0169172 12.6042 0.00117034C12.2128 -0.0145765 11.8311 0.129091 11.5408 0.40137Z" fill="#F9FAFF"/>
</svg>
