<svg width="15" height="20" viewBox="0 0 15 20" fill="none" xmlns="http://www.w3.org/2000/svg">
<path d="M9.2756 17.4973H5.73054C5.63322 17.5007 5.55273 17.5785 5.54105 17.6806C5.53718 17.7583 5.53718 17.8362 5.54105 17.9139C5.54105 19.5174 7.18597 20.5196 8.50184 19.7178C9.11262 19.3457 9.48878 18.6581 9.48878 17.9139C9.49273 17.8362 9.49273 17.7583 9.48878 17.6806C9.47638 17.5687 9.38195 17.4875 9.2756 17.4973Z" fill="#7764FE"/>
<path d="M7.57434 0.00332109C7.60104 0.00507482 7.62782 0.00621462 7.65459 0.00996328C7.6742 0.0127795 7.69341 0.0177442 7.71281 0.0215871C7.74503 0.0278874 7.77747 0.0338522 7.80958 0.0431741C7.82343 0.0472016 7.83682 0.0527426 7.8505 0.0572887C7.88544 0.0689058 7.92058 0.0809443 7.95514 0.0963112C7.96779 0.10192 7.97966 0.10935 7.99212 0.115407C8.02564 0.131755 8.05994 0.147655 8.09281 0.167715C8.17233 0.216136 8.24379 0.274934 8.30921 0.339581C8.31622 0.34653 8.32427 0.352373 8.3312 0.359508C8.35207 0.381167 8.37028 0.405285 8.38945 0.42842C8.40468 0.446652 8.42087 0.46401 8.43505 0.483218C8.44883 0.501922 8.46091 0.521865 8.47364 0.541337C8.49024 0.566593 8.50676 0.591871 8.52158 0.618552C8.53044 0.634483 8.53786 0.651207 8.54599 0.667538C8.56203 0.699593 8.57822 0.731672 8.59167 0.765511C8.60054 0.787701 8.60682 0.810852 8.61447 0.833593C8.62318 0.859726 8.63333 0.885428 8.64042 0.912472C8.66926 1.02096 8.68529 1.13463 8.68529 1.25039V2.20022C9.19431 2.29442 9.68633 2.47157 10.1439 2.72495C10.1422 2.7294 10.1402 2.73378 10.1385 2.73824C10.4178 2.89114 10.6848 3.07034 10.9354 3.27459C12.6434 4.75751 13.6174 6.98198 13.5806 9.31566V9.94829C13.5812 12.0729 14.0544 14.1677 14.9622 16.0641C14.9868 16.1197 14.9974 16.1782 14.9984 16.2359C14.9985 16.2398 15 16.2438 15 16.2476C15 16.258 14.9975 16.2681 14.9969 16.2783C14.9959 16.2906 14.9948 16.3028 14.9929 16.3148C14.9903 16.3319 14.9864 16.3483 14.9819 16.3647C14.9795 16.3733 14.977 16.3819 14.974 16.3904C14.9679 16.4082 14.9596 16.4245 14.9512 16.441C14.9479 16.4476 14.9454 16.4545 14.9418 16.461C14.9336 16.4753 14.9247 16.4885 14.915 16.5016C14.9078 16.5115 14.901 16.5215 14.893 16.5307C14.8845 16.5402 14.8754 16.5486 14.8662 16.5573C14.8555 16.5676 14.8443 16.5772 14.8324 16.5863C14.8267 16.5906 14.821 16.5948 14.8151 16.5988C14.8036 16.6066 14.7929 16.6161 14.7805 16.6229C14.7743 16.6259 14.7672 16.6268 14.7608 16.6295C14.7531 16.633 14.745 16.6348 14.7372 16.6378C14.7213 16.6435 14.7056 16.6491 14.6892 16.6528C14.6659 16.6581 14.6422 16.6619 14.6176 16.6627C14.6139 16.6629 14.6102 16.6643 14.6066 16.6643H0.39339C0.3895 16.6643 0.385471 16.6629 0.381589 16.6627C0.356985 16.6619 0.333257 16.6581 0.309992 16.6528C0.295731 16.6496 0.282186 16.6442 0.268292 16.6394C0.257778 16.6357 0.246915 16.6333 0.236821 16.6286C0.23125 16.6263 0.224994 16.6256 0.219512 16.6229C0.207117 16.6161 0.196343 16.6066 0.184893 16.5988C0.178781 16.5947 0.172678 16.5907 0.166797 16.5863C0.154881 16.5772 0.143701 16.5676 0.132966 16.5573C0.123802 16.5486 0.114581 16.5402 0.106215 16.5307C0.0975827 16.5207 0.0902504 16.5099 0.0826119 16.4992C0.0743647 16.4878 0.0661291 16.4765 0.0590086 16.4643C0.054372 16.4562 0.0505287 16.4477 0.0464201 16.4394C0.0378852 16.4221 0.0298233 16.4048 0.0236034 16.3862C0.0218522 16.3811 0.0204419 16.3757 0.0188827 16.3704C0.0135658 16.3523 0.00924184 16.334 0.00629424 16.3148C0.00434662 16.3028 0.00331285 16.2906 0.00236034 16.2783C0.00165349 16.2682 1.49712e-06 16.258 0 16.2476C0 16.2438 0.00068719 16.2398 0.00078678 16.2359C0.00179861 16.1782 0.0131681 16.1197 0.0377655 16.0641C0.945575 14.1677 1.41871 12.0729 1.41935 9.94829V9.31566C1.38253 6.98194 2.35652 4.75751 4.06451 3.27459C4.31506 3.07048 4.58161 2.89107 4.86073 2.73824C4.85899 2.73389 4.85777 2.72929 4.85601 2.72495C5.31364 2.47158 5.80562 2.2944 6.3147 2.20022V1.25039C6.3147 1.1347 6.32994 1.0209 6.35876 0.912472C6.36581 0.885445 6.37606 0.859709 6.38472 0.833593C6.39235 0.810864 6.3987 0.787691 6.40754 0.765511C6.42094 0.731687 6.43715 0.69958 6.45318 0.667538C6.46134 0.651212 6.46873 0.634478 6.47757 0.618552C6.49248 0.591743 6.50966 0.566708 6.52635 0.541337C6.53729 0.524598 6.54688 0.506865 6.5586 0.490691L6.56962 0.475745C6.58212 0.459136 6.5965 0.44429 6.60974 0.42842C6.62892 0.405287 6.64713 0.381168 6.66797 0.359508C6.67686 0.350311 6.68713 0.342658 6.69629 0.333769C6.76017 0.271431 6.83 0.214719 6.90715 0.167715C6.93986 0.147786 6.97376 0.131671 7.00707 0.115407C7.01952 0.109344 7.03139 0.101926 7.04404 0.0963112C7.07859 0.080928 7.11376 0.0689239 7.14869 0.0572887C7.16236 0.0527354 7.17576 0.0472092 7.1896 0.0431741C7.22171 0.0338342 7.25416 0.0279064 7.28638 0.0215871C7.30577 0.0177327 7.32499 0.0127913 7.3446 0.00996328C7.37163 0.00616123 7.39868 0.00508931 7.42564 0.00332109C7.45023 0.00159818 7.4748 6.6528e-05 7.49959 0C7.52465 5.15305e-05 7.54948 0.00157772 7.57434 0.00332109Z" fill="#7764FE"/>
</svg>
