<svg width="16" height="21" viewBox="0 0 16 21" fill="none" xmlns="http://www.w3.org/2000/svg">
<path d="M9.89482 18.3722H6.11342C6.00961 18.3757 5.92376 18.4574 5.9113 18.5646C5.90717 18.6462 5.90717 18.728 5.9113 18.8096C5.9113 20.4933 7.66588 21.5456 9.06948 20.7038C9.72097 20.313 10.1222 19.591 10.1222 18.8096C10.1264 18.728 10.1264 18.6462 10.1222 18.5646C10.109 18.4472 10.0083 18.3619 9.89482 18.3722Z" fill="#E6EAFF"/>
<path d="M8.07929 0.00348715C8.10777 0.00532856 8.13634 0.00652535 8.1649 0.0104614C8.18581 0.0134185 8.2063 0.0186314 8.227 0.0226665C8.26137 0.0292818 8.29597 0.0355448 8.33022 0.0453329C8.34499 0.0495617 8.35927 0.0553797 8.37386 0.0601531C8.41113 0.0723511 8.44862 0.0849915 8.48548 0.101127C8.49898 0.107016 8.51164 0.114817 8.52492 0.121178C8.56068 0.138343 8.59727 0.155038 8.63233 0.176101C8.71715 0.226943 8.79337 0.28868 8.86316 0.35656C8.87063 0.363857 8.87923 0.369992 8.88662 0.377483C8.90887 0.400226 8.9283 0.425549 8.94875 0.449841C8.96499 0.468985 8.98226 0.48721 8.99739 0.507379C9.01208 0.527018 9.02498 0.547958 9.03855 0.568404C9.05626 0.594923 9.07387 0.621465 9.08969 0.64948C9.09914 0.666207 9.10705 0.683767 9.11573 0.700915C9.13283 0.734573 9.1501 0.768255 9.16445 0.803786C9.1739 0.827086 9.18061 0.851395 9.18877 0.875272C9.19805 0.902712 9.20888 0.929699 9.21644 0.958096C9.24721 1.07201 9.26431 1.19136 9.26431 1.31291V2.31023C9.80726 2.40914 10.3321 2.59515 10.8202 2.8612C10.8183 2.86587 10.8163 2.87047 10.8144 2.87515C11.1123 3.0357 11.3971 3.22386 11.6645 3.43832C13.4863 4.99539 14.5252 7.33108 14.486 9.78144V10.4457C14.4866 12.6765 14.9914 14.8761 15.9597 16.8673C15.9859 16.9257 15.9972 16.9871 15.9983 17.0477C15.9984 17.0518 16 17.0559 16 17.06C16 17.0709 15.9973 17.0815 15.9966 17.0922C15.9956 17.1051 15.9945 17.1179 15.9924 17.1306C15.9896 17.1485 15.9855 17.1657 15.9807 17.1829C15.9781 17.192 15.9754 17.201 15.9722 17.2099C15.9657 17.2286 15.9569 17.2457 15.9479 17.263C15.9444 17.27 15.9417 17.2772 15.9379 17.284C15.9292 17.299 15.9196 17.313 15.9093 17.3267C15.9017 17.3371 15.8944 17.3476 15.8859 17.3572C15.8769 17.3672 15.8671 17.3761 15.8573 17.3852C15.8458 17.396 15.834 17.4061 15.8213 17.4156C15.8151 17.4202 15.809 17.4245 15.8028 17.4287C15.7905 17.4369 15.7791 17.4469 15.7658 17.454C15.7592 17.4572 15.7516 17.4581 15.7449 17.461C15.7367 17.4646 15.728 17.4666 15.7197 17.4697C15.7027 17.4757 15.686 17.4816 15.6685 17.4854C15.6436 17.491 15.6184 17.495 15.5921 17.4959C15.5882 17.496 15.5842 17.4976 15.5804 17.4976H0.419616C0.415466 17.4976 0.411169 17.496 0.407028 17.4959C0.380784 17.495 0.355474 17.491 0.330658 17.4854C0.315446 17.482 0.300998 17.4764 0.286178 17.4714C0.274964 17.4675 0.263376 17.465 0.252609 17.4601C0.246667 17.4576 0.239993 17.4569 0.234146 17.454C0.220925 17.4469 0.209432 17.4369 0.197219 17.4287C0.190699 17.4245 0.18419 17.4203 0.177917 17.4156C0.165206 17.4061 0.153281 17.396 0.14183 17.3852C0.132056 17.3761 0.12222 17.3672 0.113296 17.3572C0.104088 17.3468 0.0962671 17.3354 0.0881194 17.3241C0.0793223 17.3121 0.0705377 17.3004 0.0629425 17.2875C0.0579968 17.279 0.0538973 17.2701 0.0495147 17.2614C0.0404109 17.2432 0.0318115 17.225 0.025177 17.2056C0.023309 17.2001 0.0218046 17.1945 0.0201416 17.189C0.0144701 17.1699 0.00985797 17.1507 0.00671386 17.1306C0.00463639 17.1179 0.0035337 17.1051 0.0025177 17.0922C0.00176372 17.0816 1.59693e-06 17.0709 0 17.06C0 17.0559 0.000733003 17.0518 0.000839232 17.0477C0.00191852 16.9871 0.014046 16.9257 0.0402832 16.8673C1.00861 14.8761 1.51329 12.6765 1.51398 10.4457V9.78144C1.4747 7.33104 2.51362 4.99539 4.33547 3.43832C4.60273 3.224 4.88705 3.03562 5.18478 2.87515C5.18292 2.87058 5.18162 2.86576 5.17974 2.8612C5.66788 2.59516 6.19266 2.40912 6.73568 2.31023V1.31291C6.73568 1.19143 6.75193 1.07194 6.78268 0.958096C6.7902 0.929717 6.80113 0.902695 6.81037 0.875272C6.81851 0.851407 6.82528 0.827076 6.83471 0.803786C6.84901 0.768271 6.8663 0.734559 6.88339 0.700915C6.8921 0.683773 6.89998 0.666202 6.9094 0.64948C6.92531 0.62133 6.94364 0.595043 6.96144 0.568404C6.97311 0.550827 6.98334 0.532208 6.99584 0.515225L7.00759 0.499532C7.02092 0.482093 7.03626 0.466504 7.05039 0.449841C7.07085 0.425551 7.09028 0.400227 7.1125 0.377483C7.12199 0.367827 7.13294 0.359791 7.14271 0.350457C7.21085 0.285002 7.28534 0.225455 7.36762 0.176101C7.40252 0.155176 7.43867 0.138254 7.47421 0.121178C7.48749 0.114811 7.50015 0.107022 7.51365 0.101127C7.5505 0.0849744 7.58801 0.0723701 7.62527 0.0601531C7.63985 0.0553722 7.65414 0.0495696 7.66891 0.0453329C7.70316 0.0355259 7.73777 0.0293017 7.77214 0.0226665C7.79282 0.0186194 7.81332 0.0134309 7.83424 0.0104614C7.86307 0.00646929 7.89192 0.00534378 7.92068 0.00348715C7.94691 0.00167809 7.97312 6.98544e-05 7.99956 0C8.0263 5.4107e-05 8.05278 0.00165661 8.07929 0.00348715Z" fill="#E6EAFF"/>
</svg>
