<svg width="20" height="20" viewBox="0 0 20 20" fill="none" xmlns="http://www.w3.org/2000/svg">
<path d="M5.21976 3.99094C5.31755 4.16064 5.45919 4.30146 5.63012 4.39892C5.80105 4.49639 5.9951 4.54698 6.19231 4.54549C6.38829 4.5448 6.58088 4.49474 6.75198 4.40004C6.8792 4.32672 6.99057 4.22926 7.07973 4.11324C7.1689 3.99722 7.23409 3.86491 7.27159 3.7239C7.30908 3.58289 7.31815 3.43593 7.29826 3.29144C7.27837 3.14695 7.22992 3.00777 7.15567 2.88186L6.4859 1.72731C6.41267 1.6005 6.31487 1.48927 6.19812 1.40002C6.08137 1.31078 5.94798 1.24526 5.8056 1.20725C5.66323 1.16923 5.51467 1.15947 5.36847 1.17851C5.22227 1.19756 5.08131 1.24504 4.95369 1.31822C4.69705 1.46649 4.50977 1.70904 4.43247 1.99326C4.35518 2.27749 4.39411 2.58044 4.54082 2.8364L5.21976 3.99094Z" fill="#7764FE"/>
<path d="M1.66909 6.50002L2.83431 7.16366C3.00809 7.2477 3.20102 7.2853 3.39398 7.27275C3.59082 7.27238 3.78414 7.22101 3.95474 7.12373C4.12535 7.02645 4.26731 6.88665 4.36652 6.71821C4.44038 6.59175 4.4883 6.45208 4.50752 6.30722C4.52674 6.16236 4.51689 6.01517 4.47852 5.8741C4.44016 5.73302 4.37404 5.60085 4.28396 5.48517C4.19389 5.36949 4.08164 5.27259 3.95365 5.20002L2.78844 4.54548C2.66081 4.47229 2.51985 4.42482 2.37365 4.40577C2.22746 4.38673 2.0789 4.39649 1.93652 4.43451C1.79415 4.47252 1.66075 4.53803 1.544 4.62728C1.42726 4.71653 1.32946 4.82776 1.25622 4.95457C1.18049 5.0828 1.13109 5.22459 1.11086 5.3718C1.09063 5.51902 1.09997 5.66874 1.13834 5.81236C1.17671 5.95598 1.24335 6.09067 1.33444 6.20869C1.42552 6.3267 1.53926 6.42571 1.66909 6.50002Z" fill="#7764FE"/>
<path d="M1.02687 11.0909H2.37558C2.65614 11.0658 2.91706 10.9376 3.10707 10.7315C3.29709 10.5254 3.40244 10.2564 3.40244 9.97727C3.40244 9.69815 3.29709 9.42912 3.10707 9.22305C2.91706 9.01698 2.65614 8.88878 2.37558 8.86364H1.02687C0.746306 8.88878 0.485382 9.01698 0.29537 9.22305C0.105359 9.42912 0 9.69815 0 9.97727C0 10.2564 0.105359 10.5254 0.29537 10.7315C0.485382 10.9376 0.746306 11.0658 1.02687 11.0909Z" fill="#7764FE"/>
<path d="M2.83449 12.7909L1.66927 13.4636C1.53478 13.5326 1.4158 13.6278 1.31953 13.7436C1.22326 13.8594 1.1517 13.9934 1.10918 14.1373C1.06666 14.2813 1.05407 14.4324 1.07217 14.5813C1.09027 14.7303 1.13867 14.8741 1.21446 15.0039C1.29026 15.1338 1.39185 15.2471 1.51311 15.337C1.63437 15.4268 1.77276 15.4914 1.91992 15.5267C2.06707 15.562 2.21994 15.5674 2.36925 15.5425C2.51857 15.5176 2.66123 15.4629 2.78861 15.3818L3.95383 14.7182C4.08181 14.6456 4.19407 14.5487 4.28414 14.433C4.37421 14.3174 4.44033 14.1852 4.4787 14.0441C4.51706 13.903 4.52692 13.7559 4.5077 13.611C4.48848 13.4661 4.44056 13.3265 4.3667 13.2C4.21539 12.9475 3.97062 12.7635 3.68446 12.6871C3.3983 12.6107 3.09335 12.6479 2.83449 12.7909Z" fill="#7764FE"/>
<path d="M4.95369 18.6364C5.08066 18.712 5.22174 18.7615 5.36848 18.7819C5.51521 18.8023 5.66459 18.7931 5.80765 18.7549C5.95072 18.7167 6.08453 18.6503 6.20108 18.5596C6.31762 18.4689 6.4145 18.3559 6.4859 18.2273L7.15567 17.0727C7.23753 16.9465 7.29269 16.8051 7.31782 16.6572C7.34295 16.5093 7.33752 16.3578 7.30187 16.212C7.26622 16.0662 7.20108 15.929 7.11039 15.8089C7.01971 15.6888 6.90537 15.5881 6.77429 15.513C6.64321 15.4379 6.49811 15.3899 6.34778 15.372C6.19745 15.3541 6.04502 15.3665 5.89969 15.4087C5.75437 15.4508 5.61918 15.5217 5.50231 15.6171C5.38544 15.7125 5.28932 15.8304 5.21976 15.9636L4.54082 17.1182C4.39411 17.3741 4.35518 17.6771 4.43247 17.9613C4.50977 18.2455 4.69705 18.4881 4.95369 18.6364Z" fill="#7764FE"/>
<path d="M9.99996 20C10.1477 20 10.294 19.971 10.4304 19.9147C10.5669 19.8584 10.6907 19.7759 10.7947 19.6719C10.8988 19.568 10.981 19.4447 11.0367 19.309C11.0925 19.1734 11.1205 19.0282 11.1193 18.8818V17.5364C11.1193 17.3907 11.0904 17.2465 11.0341 17.1119C10.9778 16.9774 10.8954 16.8551 10.7915 16.7521C10.6875 16.6491 10.5641 16.5674 10.4283 16.5117C10.2925 16.456 10.147 16.4273 9.99996 16.4273C9.85297 16.4273 9.70742 16.456 9.57161 16.5117C9.43581 16.5674 9.31241 16.6491 9.20847 16.7521C9.10453 16.8551 9.02208 16.9774 8.96583 17.1119C8.90957 17.2465 8.88062 17.3907 8.88062 17.5364V18.8636C8.87695 19.0116 8.90319 19.1587 8.9578 19.2964C9.0124 19.4342 9.09427 19.5597 9.19858 19.6656C9.30289 19.7715 9.42753 19.8556 9.56516 19.913C9.70279 19.9705 9.85062 20 9.99996 20Z" fill="#7764FE"/>
<path d="M9.99996 5.071e-08C10.1477 -4.86794e-06 10.294 0.0289816 10.4304 0.0852862C10.5669 0.141591 10.6907 0.2241 10.7947 0.328053C10.8988 0.432007 10.981 0.555347 11.0367 0.690959C11.0925 0.826571 11.1205 0.97177 11.1193 1.11818V2.46363C11.1193 2.60928 11.0904 2.7535 11.0341 2.88807C10.9778 3.02263 10.8954 3.14489 10.7915 3.24788C10.6875 3.35087 10.5641 3.43256 10.4283 3.4883C10.2925 3.54404 10.147 3.57273 9.99996 3.57273C9.85297 3.57273 9.70742 3.54404 9.57161 3.4883C9.43581 3.43256 9.31241 3.35087 9.20847 3.24788C9.10453 3.14489 9.02208 3.02263 8.96583 2.88807C8.90957 2.7535 8.88062 2.60928 8.88062 2.46363V1.13636C8.87695 0.988436 8.90319 0.841278 8.9578 0.703553C9.0124 0.565828 9.09427 0.440322 9.19858 0.334427C9.30289 0.228533 9.42753 0.144391 9.56516 0.086956C9.70279 0.0295213 9.85062 -4.46936e-05 9.99996 5.071e-08Z" fill="#7764FE"/>
<path d="M13.5139 18.2273C13.6624 18.4889 13.9096 18.6813 14.2012 18.7623C14.4929 18.8433 14.8051 18.8062 15.0691 18.6591C15.3331 18.512 15.5273 18.267 15.6091 17.9781C15.6908 17.6891 15.6533 17.3798 15.5049 17.1182L14.8259 15.9636C14.7564 15.8304 14.6603 15.7125 14.5434 15.6171C14.4265 15.5217 14.2913 15.4508 14.146 15.4087C14.0007 15.3665 13.8483 15.3541 13.6979 15.372C13.5476 15.3899 13.4025 15.4379 13.2714 15.513C13.1403 15.5881 13.026 15.6888 12.9353 15.8089C12.8446 15.929 12.7795 16.0662 12.7438 16.212C12.7082 16.3578 12.7028 16.5093 12.7279 16.6572C12.753 16.8051 12.8082 16.9465 12.89 17.0727L13.5139 18.2273Z" fill="#7764FE"/>
<path d="M18.331 13.4636L17.1658 12.7909C16.9069 12.6479 16.602 12.6107 16.3158 12.6871C16.0297 12.7635 15.7849 12.9475 15.6336 13.2C15.5597 13.3265 15.5118 13.4661 15.4926 13.611C15.4734 13.7559 15.4832 13.903 15.5216 14.0441C15.56 14.1852 15.6261 14.3174 15.7162 14.433C15.8062 14.5487 15.9185 14.6456 16.0465 14.7182L17.2117 15.3818C17.3391 15.4629 17.4817 15.5176 17.631 15.5425C17.7804 15.5674 17.9332 15.562 18.0804 15.5267C18.2275 15.4914 18.3659 15.4268 18.4872 15.337C18.6084 15.2471 18.71 15.1338 18.7858 15.0039C18.8616 14.8741 18.91 14.7303 18.9281 14.5813C18.9462 14.4324 18.9336 14.2813 18.8911 14.1373C18.8486 13.9934 18.777 13.8594 18.6808 13.7436C18.5845 13.6278 18.4655 13.5326 18.331 13.4636Z" fill="#7764FE"/>
<path d="M16.5051 10C16.5051 10.2942 16.623 10.5763 16.8329 10.7843C17.0428 10.9923 17.3276 11.1091 17.6244 11.1091H18.9731C19.2537 11.084 19.5146 10.9558 19.7046 10.7497C19.8946 10.5436 20 10.2746 20 9.99547C20 9.71635 19.8946 9.44732 19.7046 9.24125C19.5146 9.03518 19.2537 8.90698 18.9731 8.88184H17.6244C17.3267 8.88424 17.042 9.0031 16.8324 9.21254C16.6227 9.42198 16.5051 9.70503 16.5051 10Z" fill="#7764FE"/>
<path d="M15.6336 6.75458C15.7373 6.91627 15.8813 7.04884 16.0516 7.13958C16.2219 7.23032 16.4128 7.27618 16.6062 7.27276C16.8024 7.27414 16.9955 7.22395 17.1658 7.1273L18.3311 6.46367C18.5859 6.31375 18.7716 6.07121 18.8487 5.78768C18.9258 5.50414 18.8882 5.20198 18.7439 4.94549C18.6699 4.81943 18.5716 4.70908 18.4545 4.62073C18.3374 4.53239 18.2039 4.46779 18.0615 4.43064C17.9192 4.39348 17.7709 4.3845 17.6251 4.40421C17.4793 4.42392 17.3388 4.47193 17.2117 4.54549L16.0465 5.20912C15.9148 5.28163 15.7992 5.37973 15.7067 5.49755C15.6142 5.61537 15.5467 5.75048 15.5081 5.89479C15.4696 6.03909 15.4608 6.18963 15.4824 6.33737C15.5039 6.4851 15.5554 6.62701 15.6336 6.75458Z" fill="#7764FE"/>
<path d="M13.2479 4.40004C13.419 4.49474 13.6115 4.5448 13.8075 4.54549C14.0047 4.54698 14.1988 4.49639 14.3697 4.39892C14.5406 4.30146 14.6823 4.16064 14.7801 3.99094L15.5049 2.8364C15.6516 2.58044 15.6905 2.27749 15.6132 1.99326C15.5359 1.70904 15.3487 1.46649 15.092 1.31822C14.9644 1.24504 14.8234 1.19756 14.6772 1.17851C14.531 1.15947 14.3825 1.16923 14.2401 1.20725C14.0977 1.24526 13.9643 1.31078 13.8476 1.40002C13.7308 1.48927 13.633 1.6005 13.5598 1.72731L12.8442 2.88186C12.7699 3.00777 12.7215 3.14695 12.7016 3.29144C12.6817 3.43593 12.6907 3.58289 12.7282 3.7239C12.7657 3.86491 12.8309 3.99722 12.9201 4.11324C13.0093 4.22926 13.1206 4.32672 13.2479 4.40004Z" fill="#7764FE"/>
</svg>
