<svg width="24" height="24" viewBox="0 0 24 24" fill="none" xmlns="http://www.w3.org/2000/svg">
<path d="M12.0006 4.63989C10.545 4.63989 9.12198 5.07155 7.91163 5.88028C6.70129 6.689 5.75794 7.83848 5.20088 9.18334C4.64381 10.5282 4.49806 12.0081 4.78205 13.4358C5.06604 14.8635 5.76701 16.1749 6.79632 17.2042C7.82564 18.2335 9.13706 18.9345 10.5648 19.2185C11.9925 19.5025 13.4723 19.3567 14.8172 18.7996C16.162 18.2426 17.3115 17.2992 18.1202 16.0889C18.929 14.8785 19.3606 13.4556 19.3606 11.9999C19.358 10.0487 18.5817 8.1782 17.202 6.79851C15.8223 5.41881 13.9518 4.64254 12.0006 4.63989Z" fill="#E6EAFF"/>
<path d="M12 3.47C12.2652 3.47 12.5196 3.36464 12.7071 3.17711C12.8946 2.98957 13 2.73522 13 2.47V1C13 0.734784 12.8946 0.48043 12.7071 0.292893C12.5196 0.105357 12.2652 0 12 0C11.7348 0 11.4804 0.105357 11.2929 0.292893C11.1054 0.48043 11 0.734784 11 1V2.47C11 2.73522 11.1054 2.98957 11.2929 3.17711C11.4804 3.36464 11.7348 3.47 12 3.47Z" fill="#E6EAFF"/>
<path d="M4.55068 6.00005C4.64412 6.09273 4.75493 6.16606 4.87677 6.21582C4.99861 6.26559 5.12907 6.29081 5.26068 6.29005C5.3973 6.29486 5.53345 6.27161 5.66073 6.22173C5.788 6.17185 5.9037 6.0964 6.00068 6.00005C6.09902 5.90663 6.17732 5.79418 6.23083 5.66955C6.28434 5.54491 6.31193 5.41069 6.31193 5.27505C6.31193 5.13942 6.28434 5.0052 6.23083 4.88056C6.17732 4.75592 6.09902 4.64347 6.00068 4.55005L5.00068 3.55005C4.81768 3.35247 4.56368 3.23567 4.29457 3.22536C4.02545 3.21504 3.76326 3.31205 3.56568 3.49505C3.36809 3.67805 3.25129 3.93205 3.24098 4.20116C3.23067 4.47028 3.32768 4.73247 3.51068 4.93005L4.55068 6.00005Z" fill="#E6EAFF"/>
<path d="M2.47 11H1C0.734784 11 0.48043 11.1054 0.292893 11.2929C0.105357 11.4804 0 11.7348 0 12C0 12.2652 0.105357 12.5196 0.292893 12.7071C0.48043 12.8946 0.734784 13 1 13H2.47C2.73522 13 2.98957 12.8946 3.17711 12.7071C3.36464 12.5196 3.47 12.2652 3.47 12C3.47 11.7348 3.36464 11.4804 3.17711 11.2929C2.98957 11.1054 2.73522 11 2.47 11Z" fill="#E6EAFF"/>
<path d="M4.5497 17.9999L3.5497 18.9999C3.45598 19.0929 3.38158 19.2035 3.33081 19.3253C3.28004 19.4472 3.25391 19.5779 3.25391 19.7099C3.25391 19.8419 3.28004 19.9726 3.33081 20.0945C3.38158 20.2163 3.45598 20.3269 3.5497 20.4199C3.64314 20.5126 3.75396 20.5859 3.8758 20.6357C3.99764 20.6854 4.1281 20.7107 4.2597 20.7099C4.39131 20.7107 4.52177 20.6854 4.64361 20.6357C4.76545 20.5859 4.87626 20.5126 4.9697 20.4199L5.9697 19.4199C6.06294 19.3267 6.1369 19.216 6.18736 19.0942C6.23782 18.9723 6.2638 18.8418 6.2638 18.7099C6.2638 18.578 6.23782 18.4475 6.18736 18.3257C6.1369 18.2038 6.06294 18.0931 5.9697 17.9999C5.87647 17.9067 5.76578 17.8327 5.64395 17.7822C5.52213 17.7318 5.39156 17.7058 5.2597 17.7058C5.12785 17.7058 4.99728 17.7318 4.87546 17.7822C4.75363 17.8327 4.64294 17.9067 4.5497 17.9999Z" fill="#E6EAFF"/>
<path d="M12 20.53C11.7348 20.53 11.4804 20.6354 11.2929 20.8229C11.1054 21.0105 11 21.2648 11 21.53V23C11 23.2652 11.1054 23.5196 11.2929 23.7071C11.4804 23.8947 11.7348 24 12 24C12.2652 24 12.5196 23.8947 12.7071 23.7071C12.8946 23.5196 13 23.2652 13 23V21.53C13 21.2648 12.8946 21.0105 12.7071 20.8229C12.5196 20.6354 12.2652 20.53 12 20.53Z" fill="#E6EAFF"/>
<path d="M19.4495 18C19.3543 17.9048 19.2413 17.8293 19.1169 17.7778C18.9925 17.7262 18.8592 17.6997 18.7245 17.6997C18.5899 17.6997 18.4566 17.7262 18.3322 17.7778C18.2078 17.8293 18.0947 17.9048 17.9995 18C17.9043 18.0952 17.8288 18.2082 17.7773 18.3326C17.7257 18.457 17.6992 18.5904 17.6992 18.725C17.6992 18.8597 17.7257 18.993 17.7773 19.1174C17.8288 19.2418 17.9043 19.3548 17.9995 19.45L18.9995 20.45C19.093 20.5427 19.2038 20.616 19.3256 20.6658C19.4475 20.7155 19.5779 20.7408 19.7095 20.74C19.8411 20.7408 19.9716 20.7155 20.0934 20.6658C20.2153 20.616 20.3261 20.5427 20.4195 20.45C20.5133 20.357 20.5876 20.2464 20.6384 20.1246C20.6892 20.0027 20.7153 19.872 20.7153 19.74C20.7153 19.608 20.6892 19.4773 20.6384 19.3554C20.5876 19.2336 20.5133 19.123 20.4195 19.03L19.4495 18Z" fill="#E6EAFF"/>
<path d="M22.9993 11H21.5293C21.2641 11 21.0097 11.1054 20.8222 11.2929C20.6347 11.4804 20.5293 11.7348 20.5293 12C20.5293 12.2652 20.6347 12.5196 20.8222 12.7071C21.0097 12.8946 21.2641 13 21.5293 13H22.9993C23.2645 13 23.5189 12.8946 23.7064 12.7071C23.8939 12.5196 23.9993 12.2652 23.9993 12C23.9993 11.7348 23.8939 11.4804 23.7064 11.2929C23.5189 11.1054 23.2645 11 22.9993 11Z" fill="#E6EAFF"/>
<path d="M18.7399 6.25998C19.0014 6.26957 19.2563 6.17623 19.4499 5.99998L20.4499 4.99998C20.5431 4.90674 20.6171 4.79605 20.6675 4.67423C20.718 4.55241 20.744 4.42184 20.744 4.28998C20.744 4.15812 20.718 4.02755 20.6675 3.90573C20.6171 3.78391 20.5431 3.67322 20.4499 3.57998C20.3566 3.48674 20.2459 3.41278 20.1241 3.36232C20.0023 3.31186 19.8717 3.28589 19.7399 3.28589C19.608 3.28589 19.4774 3.31186 19.3556 3.36232C19.2338 3.41278 19.1231 3.48674 19.0299 3.57998L18.0299 4.57998C17.9341 4.67095 17.8574 4.77997 17.804 4.90076C17.7507 5.02155 17.7218 5.15171 17.719 5.28373C17.7162 5.41575 17.7396 5.54701 17.7878 5.66995C17.836 5.79288 17.9081 5.90505 17.9999 5.99998C18.0993 6.09095 18.2161 6.16088 18.3433 6.20556C18.4705 6.25024 18.6054 6.26875 18.7399 6.25998Z" fill="#E6EAFF"/>
</svg>
