<svg width="24" height="24" viewBox="0 0 24 24" fill="none" xmlns="http://www.w3.org/2000/svg">
<path fill-rule="evenodd" clip-rule="evenodd" d="M11.9998 0C9.29214 0 6.6432 0.142225 4.10626 0.408897C3.18851 0.498318 2.32699 0.891912 1.65859 1.52713C0.990195 2.16235 0.553285 3.00274 0.417296 3.91475C-0.133078 7.77043 -0.139063 11.6843 0.399518 15.5416C0.68219 17.5701 2.38356 19.0119 4.34093 19.1951L4.7285 19.2306L5.1285 19.2662V23.1134C5.12865 23.2615 5.16584 23.4073 5.23668 23.5375C5.30753 23.6676 5.40979 23.778 5.53416 23.8586C5.65853 23.9391 5.80107 23.9873 5.9488 23.9987C6.09654 24.0102 6.2448 23.9845 6.38008 23.924C8.87791 22.804 10.3891 21.716 12.2113 19.6751C14.7387 19.6605 17.2639 19.5217 19.7777 19.2591C20.7225 19.1674 21.6093 18.7615 22.2962 18.1062C22.983 17.451 23.4302 16.5842 23.5662 15.6448C23.8468 13.7219 23.9917 11.7816 24 9.83842C24 7.82949 23.8453 5.85968 23.5751 3.96986C23.4389 3.04522 22.9972 2.19276 22.3202 1.54836C21.6433 0.903964 20.7701 0.504708 19.8399 0.414231C17.2354 0.141096 14.6185 0.00283471 11.9998 0ZM12.3038 5.63034C12.0791 5.5902 11.8483 5.59926 11.6275 5.65689C11.4066 5.71453 11.2009 5.81938 11.0245 5.9642C10.848 6.10903 10.7051 6.29039 10.6055 6.49578C10.506 6.70117 10.4521 6.92571 10.4477 7.15392C10.4477 7.44861 10.3307 7.73124 10.1223 7.93961C9.9139 8.14799 9.63128 8.26506 9.33659 8.26506C9.0419 8.26506 8.75928 8.14799 8.5509 7.93961C8.34252 7.73124 8.22545 7.44861 8.22545 7.15392C8.22545 4.79832 10.4282 2.99206 12.7375 3.45074C14.2131 3.74408 15.4096 4.9441 15.7029 6.41613C15.8505 7.15748 15.7652 7.86149 15.4434 8.4944C15.1323 9.10596 14.6398 9.57353 14.0976 9.93442C13.6069 10.2633 13.342 10.4571 13.1873 10.6171C13.1599 10.6458 13.1349 10.6767 13.1127 10.7096C13.112 11.0042 12.9942 11.2866 12.7853 11.4945C12.5765 11.7023 12.2936 11.8187 11.9989 11.818C11.7042 11.8173 11.4218 11.6996 11.214 11.4907C11.0061 11.2818 10.8897 10.9989 10.8904 10.7042C10.8904 10.0109 11.1944 9.48464 11.5855 9.07752C11.9358 8.71484 12.4104 8.39128 12.8638 8.08728C13.198 7.86327 13.3758 7.65882 13.4629 7.48637C13.5578 7.28808 13.5792 7.06253 13.5233 6.84992C13.4574 6.55156 13.3075 6.27827 13.0915 6.0622C12.8754 5.84614 12.6021 5.6963 12.3038 5.63034ZM13.1109 14.7736C13.1109 14.4789 12.9938 14.1963 12.7854 13.9879C12.5771 13.7796 12.2944 13.6625 11.9998 13.6625C11.7051 13.6625 11.4224 13.7796 11.2141 13.9879C11.0057 14.1963 10.8886 14.4789 10.8886 14.7736V15.2625C10.8886 15.5572 11.0057 15.8398 11.2141 16.0482C11.4224 16.2566 11.7051 16.3737 11.9998 16.3737C12.2944 16.3737 12.5771 16.2566 12.7854 16.0482C12.9938 15.8398 13.1109 15.5572 13.1109 15.2625V14.7736Z" fill="#F9FAFF"/>
</svg>
