<svg width="20" height="20" viewBox="0 0 20 20" fill="none" xmlns="http://www.w3.org/2000/svg">
<path fill-rule="evenodd" clip-rule="evenodd" d="M10 20C15.5228 20 20 15.523 20 10C20 4.47717 15.5228 0 10 0C4.47715 0 0 4.47717 0 10C0 15.523 4.47715 20 10 20ZM11.0417 4.99977C11.0417 4.42447 10.5753 3.9581 9.99999 3.9581C9.42469 3.9581 8.95832 4.42447 8.95832 4.99977V9.99979C8.95832 10.5751 9.42469 11.0415 9.99999 11.0415H14.1667C14.742 11.0415 15.2083 10.5751 15.2083 9.99979C15.2083 9.42449 14.742 8.95812 14.1667 8.95812H11.0417V4.99977Z" fill="#7764FE"/>
</svg>
