<svg width="24" height="18" viewBox="0 0 24 18" fill="none" xmlns="http://www.w3.org/2000/svg">
<path d="M18 11.5C17.0945 11.4989 16.2012 11.7077 15.39 12.11C15.3252 12.139 15.2675 12.1817 15.2209 12.2353C15.1743 12.2888 15.1398 12.3518 15.12 12.42C15.0894 12.5561 15.1108 12.6987 15.18 12.8199C16.0463 14.2269 16.5034 15.8475 16.5 17.4999C16.5025 17.6317 16.556 17.7574 16.6492 17.8506C16.7425 17.9438 16.8682 17.9973 17 17.9999H23.5C23.6326 17.9999 23.7598 17.9472 23.8535 17.8534C23.9473 17.7597 24 17.6325 24 17.4999C24 15.9086 23.3678 14.3825 22.2426 13.2573C21.1174 12.1321 19.5913 11.5 18 11.5Z" fill="#7764FE"/>
<path d="M14.191 7.24972C14.191 7.74217 14.288 8.2298 14.4765 8.68476C14.6649 9.13972 14.9411 9.55311 15.2894 9.90133C15.6376 10.2495 16.051 10.5258 16.506 10.7142C16.9609 10.9027 17.4486 10.9997 17.941 10.9997C18.4335 10.9997 18.9211 10.9027 19.3761 10.7142C19.8311 10.5258 20.2444 10.2495 20.5927 9.90133C20.9409 9.55311 21.2171 9.13972 21.4056 8.68476C21.594 8.2298 21.691 7.74217 21.691 7.24972C21.691 6.75727 21.594 6.26964 21.4056 5.81468C21.2171 5.35972 20.9409 4.94633 20.5927 4.59811C20.2444 4.2499 19.8311 3.97368 19.3761 3.78523C18.9211 3.59677 18.4335 3.49978 17.941 3.49978C17.4486 3.49978 16.9609 3.59677 16.506 3.78523C16.051 3.97368 15.6376 4.2499 15.2894 4.59811C14.9411 4.94633 14.6649 5.35972 14.4765 5.81468C14.288 6.26964 14.191 6.75727 14.191 7.24972Z" fill="#7764FE"/>
<path d="M2.75032 4.74993C2.75032 6.00968 3.25077 7.21785 4.14157 8.10863C5.03236 8.99941 6.24055 9.49985 7.50032 9.49985C8.7601 9.49985 9.96829 8.99941 10.8591 8.10863C11.7499 7.21785 12.2503 6.00968 12.2503 4.74993C12.2503 3.49017 11.7499 2.28201 10.8591 1.39122C9.96829 0.500437 8.7601 0 7.50032 0C6.24055 0 5.03236 0.500437 4.14157 1.39122C3.25077 2.28201 2.75032 3.49017 2.75032 4.74993Z" fill="#7764FE"/>
<path d="M15 17.4991C15 15.51 14.2098 13.6024 12.8033 12.1959C11.3968 10.7894 9.4891 9.99924 7.49997 9.99924C5.51085 9.99924 3.60319 10.7894 2.19667 12.1959C0.790146 13.6024 -3.05176e-05 15.51 -3.05176e-05 17.4991C-3.05176e-05 17.6317 0.0526479 17.7589 0.146416 17.8527C0.240184 17.9464 0.367362 17.9991 0.49997 17.9991H14.5C14.6326 17.9991 14.7598 17.9464 14.8535 17.8527C14.9473 17.7589 15 17.6317 15 17.4991Z" fill="#7764FE"/>
</svg>
