<svg width="19" height="16" viewBox="0 0 19 16" fill="none" xmlns="http://www.w3.org/2000/svg">
<path d="M1.42282 0C0.637304 0 0 0.671875 0 1.5V11.5C0 12.3281 0.637304 13 1.42282 13H1.89709C1.89709 14.6563 3.1717 16 4.74272 16C6.31375 16 7.58836 14.6563 7.58836 13H11.3825C11.3825 14.6563 12.6571 16 14.2282 16C15.7992 16 17.0738 14.6563 17.0738 13H18.0224C18.547 13 18.9709 12.5531 18.9709 12C18.9709 11.4469 18.547 11 18.0224 11V7.41562C18.0224 6.88437 17.8238 6.375 17.468 6L15.1767 3.58437C14.821 3.20937 14.3378 3 13.8339 3H12.3311V1.5C12.3311 0.671875 11.6938 0 10.9083 0H1.42282ZM12.3311 5H13.8339L16.1253 7.41562V8H12.3311V5ZM3.31991 13C3.31991 11.8453 4.50559 11.1236 5.45413 11.701C5.89435 11.9689 6.16554 12.4641 6.16554 13C6.16554 14.1547 4.97986 14.8764 4.03132 14.299C3.5911 14.0311 3.31991 13.5359 3.31991 13ZM14.2282 11.5C15.3235 11.4999 16.008 12.7499 15.4604 13.7499C15.2063 14.2141 14.7365 14.5 14.2282 14.5C13.1329 14.5 12.4483 13.25 12.996 12.25C13.2502 11.7859 13.7198 11.5 14.2282 11.5Z" fill="#7764FE"/>
</svg>
