<svg width="19" height="19" viewBox="0 0 19 19" fill="none" xmlns="http://www.w3.org/2000/svg">
<path d="M18.9709 5.38504C18.9698 5.19 18.9218 4.99814 18.8309 4.82597C18.7401 4.6538 18.6091 4.50648 18.4492 4.39669L12.9162 0.602695C12.7217 0.468703 12.4917 0.397018 12.2561 0.397018C12.0206 0.397018 11.7906 0.468703 11.5961 0.602695L6.9721 4.03801C6.9032 4.08856 6.82018 4.11578 6.73498 4.11578C6.64977 4.11578 6.56675 4.08856 6.49785 4.03801L1.88962 0.602695C1.71075 0.469603 1.49838 0.389898 1.27675 0.372675C1.05511 0.355453 0.833136 0.401407 0.636157 0.505293C0.439178 0.609179 0.275128 0.766812 0.16273 0.960203C0.0503319 1.15359 -0.00588749 1.37495 0.000487852 1.59902V13.3556C0.00151939 13.5507 0.0495411 13.7425 0.140419 13.9147C0.231297 14.0869 0.362308 14.2342 0.522173 14.344L6.0552 18.138C6.24966 18.272 6.47969 18.3436 6.71521 18.3436C6.95073 18.3436 7.18077 18.272 7.37523 18.138L11.9834 14.7186C12.0524 14.668 12.1354 14.6408 12.2206 14.6408C12.3058 14.6408 12.3888 14.668 12.4577 14.7186L17.0817 18.138C17.287 18.2863 17.5327 18.367 17.7852 18.3691C17.9412 18.3702 18.0959 18.34 18.2402 18.2803C18.3845 18.2206 18.5156 18.1325 18.6259 18.0213C18.7363 17.9101 18.8236 17.7778 18.8828 17.6323C18.942 17.4868 18.9719 17.3308 18.9709 17.1735V5.38504ZM7.5096 5.80748C7.50831 5.74539 7.52203 5.68392 7.54957 5.62837C7.57711 5.57282 7.61765 5.52487 7.66769 5.48866L11.1456 2.86634C11.1766 2.84733 11.2121 2.83728 11.2483 2.83728C11.2846 2.83728 11.3201 2.84733 11.3511 2.86634C11.3777 2.87809 11.4014 2.89561 11.4205 2.91765C11.4397 2.93969 11.4537 2.96572 11.4618 2.99387V12.9332C11.4631 12.9953 11.4493 13.0567 11.4218 13.1123C11.3942 13.1678 11.3537 13.2158 11.3037 13.252L7.82577 15.8743C7.79481 15.8933 7.75926 15.9034 7.72302 15.9034C7.68677 15.9034 7.65122 15.8933 7.62026 15.8743C7.59365 15.8626 7.56994 15.8451 7.55082 15.823C7.53169 15.801 7.51762 15.7749 7.5096 15.7468V5.80748ZM1.58135 2.77866C1.58053 2.74064 1.59051 2.70318 1.61012 2.67069C1.62973 2.63821 1.65814 2.61206 1.69201 2.59534C1.72297 2.57633 1.75852 2.56628 1.79477 2.56628C1.83102 2.56628 1.86657 2.57633 1.89753 2.59534L5.77065 5.47272C5.81929 5.51026 5.8588 5.55848 5.88619 5.61372C5.91359 5.66897 5.92813 5.72978 5.92873 5.79154V15.7468C5.92883 15.7826 5.91934 15.8178 5.90125 15.8487C5.88317 15.8796 5.85716 15.9049 5.82598 15.9221C5.79449 15.9396 5.75915 15.9487 5.72322 15.9487C5.6873 15.9487 5.65195 15.9396 5.62046 15.9221L1.75525 13.252C1.70168 13.2163 1.65773 13.1678 1.62738 13.1107C1.59703 13.0537 1.58121 12.9899 1.58135 12.9252V2.77866ZM17.39 15.962C17.3908 16 17.3809 16.0375 17.3612 16.07C17.3416 16.1024 17.3132 16.1286 17.2793 16.1453C17.2484 16.1643 17.2128 16.1744 17.1766 16.1744C17.1403 16.1744 17.1048 16.1643 17.0738 16.1453L13.2007 13.2919C13.1521 13.2543 13.1126 13.2061 13.0852 13.1508C13.0578 13.0956 13.0432 13.0348 13.0426 12.973V2.99387C13.0425 2.95802 13.052 2.92281 13.0701 2.89195C13.0882 2.86109 13.1142 2.83572 13.1454 2.81852C13.1769 2.80107 13.2122 2.79193 13.2481 2.79193C13.2841 2.79193 13.3194 2.80107 13.3509 2.81852L17.2161 5.47272C17.2697 5.50839 17.3136 5.55693 17.344 5.61397C17.3743 5.67102 17.3902 5.73477 17.39 5.79951V15.962Z" fill="#7764FE"/>
</svg>
