<svg width="19" height="14" viewBox="0 0 19 14" fill="none" xmlns="http://www.w3.org/2000/svg">
<path d="M8.19929 12.9303C8.42247 13.1607 8.7224 13.2912 9.03569 13.2941C9.19113 13.2944 9.34509 13.2624 9.48866 13.2C9.63222 13.1375 9.76255 13.0459 9.87209 12.9303L15.5138 7.01747C15.5323 6.99746 15.5543 6.98155 15.5787 6.97068C15.6031 6.95981 15.6294 6.95421 15.6559 6.95421C15.6824 6.95421 15.7086 6.95981 15.733 6.97068C15.7574 6.98155 15.7795 6.99746 15.7979 7.01747L16.4923 7.75347C16.5913 7.85753 16.7149 7.93208 16.8505 7.96944C16.9861 8.0068 17.1287 8.00563 17.2637 7.96605C17.3987 7.92646 17.5212 7.84989 17.6186 7.74422C17.716 7.63854 17.7848 7.50758 17.8179 7.3648L18.9541 2.69245C18.9817 2.55444 18.9752 2.41134 18.9351 2.27673C18.8951 2.14212 18.8228 2.02048 18.7253 1.92337C18.6295 1.82133 18.51 1.74711 18.3786 1.70798C18.2473 1.66884 18.1084 1.66612 17.9757 1.70009L13.5096 2.85784C13.3747 2.89326 13.251 2.96546 13.1512 3.06712C13.0514 3.16878 12.9791 3.29629 12.9415 3.43672C12.9006 3.58107 12.8981 3.73438 12.9343 3.88012C12.9704 4.02585 13.0439 4.15848 13.1467 4.26368L13.841 4.99968C13.8594 5.01755 13.8738 5.03937 13.8833 5.06363C13.8929 5.0879 13.8973 5.11404 13.8963 5.14026C13.8974 5.16773 13.8931 5.19515 13.8836 5.22077C13.8741 5.24639 13.8596 5.26967 13.841 5.28912L8.19929 11.2019C7.98661 11.4344 7.86787 11.744 7.86787 12.0661C7.86787 12.3882 7.98661 12.6978 8.19929 12.9303Z" fill="#7764FE"/>
<path d="M9.12248 0.815236L3.29135 6.60399C3.25447 6.64187 3.2049 6.66309 3.15326 6.66309C3.10163 6.66309 3.05205 6.64187 3.01518 6.60399L2.47862 6.05819C2.37965 5.95413 2.25601 5.87959 2.12042 5.84223C1.98484 5.80486 1.8422 5.80604 1.70719 5.84562C1.57218 5.88521 1.44967 5.96178 1.35227 6.06745C1.25487 6.17312 1.18608 6.30409 1.153 6.44687L0.0167598 11.0779C-0.0108216 11.2159 -0.00427621 11.359 0.035774 11.4936C0.0758242 11.6282 0.148049 11.7498 0.245586 11.8469C0.345125 11.9561 0.471284 12.0346 0.610382 12.074C0.749479 12.1134 0.896204 12.1121 1.03464 12.0702L5.46126 10.9125C5.59686 10.8767 5.72096 10.8038 5.82086 10.7013C5.92076 10.5988 5.99286 10.4702 6.02979 10.3289C6.06671 10.1876 6.06714 10.0385 6.03102 9.89689C5.9949 9.75531 5.92353 9.62634 5.82422 9.52318L4.96415 8.62179C4.92886 8.581 4.90919 8.52799 4.90892 8.47293C4.9094 8.44616 4.91528 8.4198 4.92616 8.39558C4.93703 8.37135 4.95267 8.3498 4.97204 8.33235L10.7479 2.61802C10.9684 2.39025 11.095 2.08102 11.1005 1.75661C11.106 1.4322 10.99 1.11845 10.7773 0.882626C10.5647 0.646801 10.2724 0.507674 9.96303 0.495077C9.65368 0.482479 9.35193 0.597413 9.12248 0.815236Z" fill="#7764FE"/>
</svg>
