<svg width="12" height="15" viewBox="0 0 12 15" fill="none" xmlns="http://www.w3.org/2000/svg">
<path d="M7.30454 13.1386H4.5128C4.43616 13.1411 4.37278 13.199 4.36358 13.2749C4.36053 13.3327 4.36053 13.3907 4.36358 13.4485C4.36358 14.641 5.65895 15.3864 6.6952 14.7901C7.17619 14.5134 7.47242 14.0019 7.47242 13.4485C7.47553 13.3907 7.47553 13.3327 7.47242 13.2749C7.46265 13.1917 7.38829 13.1313 7.30454 13.1386Z" fill="#7764FE"/>
<path d="M5.96479 0.12747C5.98582 0.128774 6.00691 0.129622 6.02799 0.13241C6.04343 0.134505 6.05856 0.138197 6.07384 0.141055C6.09921 0.145741 6.12476 0.150178 6.15005 0.157111C6.16095 0.160106 6.17149 0.164227 6.18226 0.167608C6.20978 0.176249 6.23746 0.185202 6.26467 0.196631C6.27464 0.200803 6.28398 0.206329 6.29379 0.210834C6.32019 0.222993 6.3472 0.234819 6.37309 0.249738C6.43571 0.285751 6.49198 0.329482 6.5435 0.377563C6.54902 0.382732 6.55537 0.387077 6.56082 0.392384C6.57725 0.408493 6.59159 0.426431 6.60669 0.443637C6.61868 0.457198 6.63144 0.470107 6.6426 0.484393C6.65345 0.498304 6.66297 0.513137 6.67299 0.527619C6.68606 0.546404 6.69907 0.565204 6.71074 0.585048C6.71772 0.596897 6.72356 0.609335 6.72997 0.621481C6.74259 0.645322 6.75535 0.669181 6.76594 0.694348C6.77292 0.710852 6.77787 0.728072 6.7839 0.744985C6.79075 0.764421 6.79874 0.783537 6.80433 0.803651C6.82704 0.884337 6.83967 0.96888 6.83967 1.05498V1.76141C7.24052 1.83147 7.62798 1.96323 7.98836 2.15168C7.98696 2.15499 7.98544 2.15825 7.98404 2.16157C8.20401 2.27528 8.41427 2.40857 8.61165 2.56048C9.9567 3.6634 10.7237 5.31784 10.6947 7.05352V7.52404C10.6952 9.10418 11.0678 10.6623 11.7827 12.0727C11.8021 12.114 11.8105 12.1575 11.8112 12.2005C11.8113 12.2034 11.8125 12.2063 11.8125 12.2091C11.8125 12.2169 11.8105 12.2244 11.81 12.232C11.8093 12.2411 11.8084 12.2502 11.8069 12.2592C11.8048 12.2719 11.8018 12.2841 11.7982 12.2962C11.7963 12.3027 11.7944 12.309 11.792 12.3154C11.7872 12.3286 11.7806 12.3407 11.7741 12.353C11.7714 12.3579 11.7695 12.363 11.7666 12.3679C11.7602 12.3785 11.7532 12.3883 11.7456 12.3981C11.7399 12.4054 11.7345 12.4129 11.7282 12.4197C11.7216 12.4268 11.7144 12.433 11.7071 12.4395C11.6987 12.4471 11.6899 12.4543 11.6805 12.4611C11.676 12.4643 11.6715 12.4674 11.6669 12.4704C11.6578 12.4762 11.6494 12.4833 11.6396 12.4882C11.6347 12.4905 11.6291 12.4912 11.6241 12.4932C11.6181 12.4958 11.6117 12.4972 11.6055 12.4994C11.593 12.5036 11.5807 12.5078 11.5677 12.5105C11.5494 12.5145 11.5307 12.5173 11.5114 12.5179C11.5085 12.518 11.5055 12.5191 11.5027 12.5191H0.309795C0.306731 12.5191 0.303559 12.518 0.300501 12.5179C0.281125 12.5173 0.26244 12.5145 0.244119 12.5105C0.232888 12.5081 0.222221 12.5041 0.21128 12.5006C0.203 12.4978 0.194445 12.496 0.186496 12.4925C0.18211 12.4908 0.177182 12.4903 0.172866 12.4882C0.163105 12.4833 0.15462 12.4762 0.145603 12.4704C0.14079 12.4673 0.135984 12.4643 0.131353 12.4611C0.121969 12.4543 0.113164 12.4471 0.104711 12.4395C0.0974943 12.433 0.0902329 12.4268 0.0836446 12.4197C0.0768464 12.4123 0.0710722 12.4042 0.0650569 12.3962C0.0585622 12.3878 0.0520767 12.3794 0.0464692 12.3703C0.042818 12.3643 0.0397914 12.358 0.0365558 12.3518C0.0298346 12.339 0.0234859 12.3261 0.0185877 12.3123C0.0172086 12.3084 0.016098 12.3044 0.0148702 12.3005C0.010683 12.287 0.00727795 12.2734 0.00495672 12.2592C0.00342296 12.2502 0.00260887 12.2411 0.00185877 12.232C0.00130212 12.2244 1.17898e-06 12.2169 0 12.2091C0 12.2063 0.000541162 12.2034 0.000619589 12.2005C0.00141641 12.1575 0.0103699 12.114 0.0297403 12.0727C0.74464 10.6623 1.11723 9.10418 1.11774 7.52404V7.05352C1.08875 5.31782 1.85576 3.6634 3.2008 2.56048C3.39811 2.40867 3.60802 2.27523 3.82782 2.16157C3.82645 2.15833 3.82549 2.15491 3.8241 2.15168C4.18449 1.96324 4.57192 1.83146 4.97283 1.76141V1.05498C4.97283 0.968931 4.98482 0.884293 5.00752 0.803651C5.01308 0.783549 5.02115 0.764409 5.02797 0.744985C5.03398 0.72808 5.03898 0.710845 5.04594 0.694348C5.05649 0.669192 5.06926 0.645313 5.08188 0.621481C5.0883 0.609339 5.09412 0.596893 5.10108 0.585048C5.11283 0.565109 5.12636 0.546489 5.1395 0.527619C5.14811 0.515169 5.15567 0.501981 5.1649 0.489951L5.17358 0.478835C5.18342 0.466482 5.19474 0.45544 5.20517 0.443637C5.22028 0.426432 5.23462 0.408494 5.25102 0.392384C5.25803 0.385544 5.26612 0.379852 5.27332 0.373241C5.32363 0.326877 5.37863 0.284697 5.43938 0.249738C5.46514 0.234916 5.49183 0.22293 5.51807 0.210834C5.52787 0.206324 5.53722 0.200807 5.54718 0.196631C5.57439 0.18519 5.60208 0.176262 5.62959 0.167608C5.64036 0.164222 5.65091 0.160112 5.66181 0.157111C5.68709 0.150164 5.71265 0.145755 5.73802 0.141055C5.75329 0.138189 5.76843 0.134514 5.78387 0.13241C5.80515 0.129582 5.82646 0.128785 5.84769 0.12747C5.86705 0.126189 5.8864 0.125049 5.90593 0.125C5.92566 0.125038 5.94522 0.126173 5.96479 0.12747Z" fill="#7764FE"/>
</svg>
