<svg width="20" height="20" viewBox="0 0 20 20" fill="none" xmlns="http://www.w3.org/2000/svg">
<path d="M17.887 7.60504H16.4084C16.2587 7.09765 16.0562 6.60738 15.8042 6.14227L16.8456 5.0929C16.9578 4.98336 17.0467 4.85221 17.1068 4.70737C17.1669 4.56254 17.197 4.40703 17.1954 4.25022C17.1966 4.09348 17.1662 3.93811 17.1061 3.79334C17.046 3.64857 16.9574 3.51737 16.8456 3.40755L15.7247 2.28663C15.6145 2.1751 15.4833 2.08655 15.3386 2.02611C15.194 1.96568 15.0388 1.93456 14.882 1.93456C14.7252 1.93456 14.57 1.96568 14.4254 2.02611C14.2807 2.08655 14.1495 2.1751 14.0393 2.28663L12.99 3.336C12.5266 3.07839 12.036 2.87308 11.5272 2.72386V1.2452C11.5272 0.928941 11.4016 0.625632 11.1779 0.402C10.9543 0.178369 10.651 0.0527344 10.3347 0.0527344L8.74477 0.0527344C8.42851 0.0527344 8.1252 0.178369 7.90157 0.402C7.67794 0.625632 7.5523 0.928941 7.5523 1.2452V2.72386C7.04354 2.87308 6.55294 3.07839 6.08954 3.336L5.04017 2.28663C4.92999 2.1751 4.79878 2.08655 4.65412 2.02611C4.50947 1.96568 4.35426 1.93456 4.19749 1.93456C4.04072 1.93456 3.88551 1.96568 3.74086 2.02611C3.5962 2.08655 3.46499 2.1751 3.35481 2.28663L2.23389 3.40755C2.12205 3.51737 2.03345 3.64857 1.97336 3.79334C1.91327 3.93811 1.88291 4.09348 1.8841 4.25022C1.88152 4.40716 1.91124 4.56295 1.97142 4.70792C2.03159 4.85288 2.12093 4.98392 2.23389 5.0929L3.27531 6.14227C3.0233 6.60738 2.82079 7.09765 2.67113 7.60504H1.19247C0.876206 7.60504 0.572897 7.73067 0.349266 7.9543C0.125635 8.17793 0 8.48124 0 8.7975L0 10.3875C0 10.7037 0.125635 11.007 0.349266 11.2307C0.572897 11.4543 0.876206 11.5799 1.19247 11.5799H2.67113C2.81937 12.0878 3.02194 12.5782 3.27531 13.0427L2.23389 14.0921C2.01058 14.3157 1.88515 14.6187 1.88515 14.9347C1.88515 15.2507 2.01058 15.5538 2.23389 15.7774L3.35481 16.8983C3.58136 17.116 3.88333 17.2375 4.19749 17.2375C4.51165 17.2375 4.81362 17.116 5.04017 16.8983L6.08954 15.8569C6.554 16.1103 7.04442 16.3129 7.5523 16.4611V17.9398C7.5523 18.256 7.67794 18.5593 7.90157 18.783C8.1252 19.0066 8.42851 19.1322 8.74477 19.1322H10.3347C10.651 19.1322 10.9543 19.0066 11.1779 18.783C11.4016 18.5593 11.5272 18.256 11.5272 17.9398V16.4611C12.0351 16.3129 12.5255 16.1103 12.99 15.8569L14.0393 16.8983C14.1495 17.0099 14.2807 17.0984 14.4254 17.1589C14.57 17.2193 14.7252 17.2504 14.882 17.2504C15.0388 17.2504 15.194 17.2193 15.3386 17.1589C15.4833 17.0984 15.6145 17.0099 15.7247 16.8983L16.8456 15.7774C17.0689 15.5538 17.1943 15.2507 17.1943 14.9347C17.1943 14.6187 17.0689 14.3157 16.8456 14.0921L15.8042 13.0427C16.0576 12.5782 16.2601 12.0878 16.4084 11.5799H17.887C18.2033 11.5799 18.5066 11.4543 18.7302 11.2307C18.9539 11.007 19.0795 10.7037 19.0795 10.3875V8.7975C19.0795 8.48124 18.9539 8.17793 18.7302 7.9543C18.5066 7.73067 18.2033 7.60504 17.887 7.60504ZM9.53975 13.5674C8.75359 13.5674 7.98508 13.3343 7.33142 12.8975C6.67775 12.4607 6.16828 11.8399 5.86742 11.1136C5.56657 10.3873 5.48786 9.58807 5.64123 8.81702C5.7946 8.04597 6.17317 7.33771 6.72907 6.78181C7.28497 6.22591 7.99323 5.84734 8.76429 5.69396C9.53534 5.54059 10.3346 5.61931 11.0609 5.92016C11.7872 6.22101 12.408 6.73048 12.8448 7.38415C13.2815 8.03782 13.5146 8.80632 13.5146 9.59248C13.5146 10.6467 13.0959 11.6577 12.3504 12.4032C11.605 13.1486 10.594 13.5674 9.53975 13.5674Z" fill="#7764FE"/>
</svg>
