<svg width="20" height="20" viewBox="0 0 20 20" fill="none" xmlns="http://www.w3.org/2000/svg">
<path fill-rule="evenodd" clip-rule="evenodd" d="M9.53955 0.132812C7.38706 0.132812 5.28121 0.245878 3.26439 0.457877C2.5348 0.528965 1.8499 0.841864 1.31854 1.34685C0.787185 1.85183 0.43985 2.51993 0.331741 3.24495C-0.105795 6.31014 -0.110552 9.42159 0.317608 12.4881C0.542327 14.1007 1.89488 15.2469 3.45095 15.3925L3.75905 15.4207L4.07705 15.449V18.5075C4.07717 18.6253 4.10673 18.7412 4.16305 18.8446C4.21938 18.9481 4.30067 19.0358 4.39954 19.0999C4.49841 19.1639 4.61173 19.2022 4.72918 19.2113C4.84663 19.2204 4.96448 19.2 5.07203 19.1519C7.05776 18.2615 8.25908 17.3966 9.70774 15.7741C11.717 15.7625 13.7244 15.6522 15.7229 15.4434C16.474 15.3705 17.179 15.0478 17.725 14.5269C18.271 14.006 18.6265 13.3169 18.7346 12.5701C18.9577 11.0414 19.0729 9.49897 19.0795 7.95415C19.0795 6.3571 18.9565 4.79113 18.7417 3.28877C18.6335 2.5537 18.2823 1.87601 17.7441 1.36373C17.206 0.851445 16.5118 0.534045 15.7723 0.462117C13.7018 0.244981 11.6214 0.135066 9.53955 0.132812ZM9.78123 4.60881C9.6026 4.5769 9.41918 4.5841 9.2436 4.62993C9.06803 4.67575 8.90447 4.7591 8.76422 4.87423C8.62396 4.98936 8.51034 5.13354 8.43119 5.29682C8.35203 5.4601 8.30923 5.63861 8.30572 5.82003C8.30572 6.05431 8.21266 6.27898 8.047 6.44464C7.88134 6.6103 7.65667 6.70336 7.42239 6.70336C7.18812 6.70336 6.96344 6.6103 6.79779 6.44464C6.63213 6.27898 6.53906 6.05431 6.53906 5.82003C6.53906 3.94738 8.29018 2.51144 10.1261 2.87608C11.2991 3.10927 12.2503 4.06327 12.4835 5.2335C12.6008 5.82286 12.533 6.38254 12.2772 6.88568C12.0298 7.37186 11.6383 7.74357 11.2073 8.03047C10.8172 8.29194 10.6066 8.44599 10.4837 8.57319C10.4618 8.59598 10.442 8.62056 10.4243 8.64668C10.4237 8.88095 10.3301 9.10541 10.1641 9.27067C9.99802 9.43593 9.77312 9.52845 9.53885 9.52789C9.30457 9.52733 9.08012 9.43372 8.91486 9.26767C8.7496 9.10162 8.65708 8.87671 8.65764 8.64244C8.65764 8.09125 8.89932 7.6729 9.21025 7.34925C9.48867 7.06093 9.86603 6.80371 10.2264 6.56203C10.4921 6.38395 10.6335 6.22142 10.7027 6.08432C10.7782 5.92668 10.7952 5.74738 10.7508 5.57835C10.6983 5.34117 10.5792 5.1239 10.4074 4.95214C10.2357 4.78037 10.0184 4.66125 9.78123 4.60881ZM10.4229 11.8775C10.4229 11.6433 10.3298 11.4186 10.1642 11.2529C9.99851 11.0873 9.77383 10.9942 9.53955 10.9942C9.30528 10.9942 9.0806 11.0873 8.91495 11.2529C8.74929 11.4186 8.65623 11.6433 8.65623 11.8775V12.2662C8.65623 12.5005 8.74929 12.7252 8.91495 12.8908C9.0806 13.0565 9.30528 13.1495 9.53955 13.1495C9.77383 13.1495 9.99851 13.0565 10.1642 12.8908C10.3298 12.7252 10.4229 12.5005 10.4229 12.2662V11.8775Z" fill="#7764FE"/>
</svg>
