<svg width="18" height="18" viewBox="0 0 18 18" fill="none" xmlns="http://www.w3.org/2000/svg">
<path d="M9.12504 3.84761C8.10607 3.84761 7.10998 4.14977 6.26274 4.71588C5.4155 5.28199 4.75515 6.08662 4.36521 7.02802C3.97527 7.96943 3.87324 9.00532 4.07203 10.0047C4.27082 11.0041 4.7615 11.9221 5.48202 12.6426C6.20254 13.3631 7.12054 13.8538 8.11993 14.0526C9.11932 14.2514 10.1552 14.1494 11.0966 13.7594C12.038 13.3695 12.8427 12.7092 13.4088 11.8619C13.9749 11.0147 14.277 10.0186 14.277 8.99961C14.2752 7.63378 13.7318 6.32443 12.766 5.35864C11.8002 4.39285 10.4909 3.84946 9.12504 3.84761Z" fill="#7764FE"/>
<path d="M9.12504 3.02861C9.31069 3.02861 9.48874 2.95486 9.62001 2.82358C9.75129 2.69231 9.82504 2.51426 9.82504 2.32861V1.29961C9.82504 1.11396 9.75129 0.93591 9.62001 0.804635C9.48874 0.673359 9.31069 0.599609 9.12504 0.599609C8.93939 0.599609 8.76134 0.673359 8.63006 0.804635C8.49879 0.93591 8.42504 1.11396 8.42504 1.29961V2.32861C8.42504 2.51426 8.49879 2.69231 8.63006 2.82358C8.76134 2.95486 8.93939 3.02861 9.12504 3.02861Z" fill="#7764FE"/>
<path d="M3.91004 4.79961C3.97545 4.86449 4.05302 4.91581 4.1383 4.95065C4.22359 4.98548 4.31491 5.00314 4.40704 5.00261C4.50267 5.00598 4.59798 4.9897 4.68707 4.95478C4.77617 4.91987 4.85716 4.86706 4.92504 4.79961C4.99387 4.73422 5.04869 4.6555 5.08614 4.56826C5.1236 4.48101 5.14291 4.38706 5.14291 4.29211C5.14291 4.19716 5.1236 4.10321 5.08614 4.01596C5.04869 3.92872 4.99387 3.85 4.92504 3.78461L4.22504 3.08461C4.09694 2.9463 3.91914 2.86454 3.73076 2.85732C3.54238 2.8501 3.35885 2.91801 3.22054 3.04611C3.08223 3.17421 3.00047 3.35201 2.99325 3.54039C2.98603 3.72877 3.05394 3.9123 3.18204 4.05061L3.91004 4.79961Z" fill="#7764FE"/>
<path d="M2.45404 8.29961H1.42504C1.23939 8.29961 1.06134 8.37336 0.930062 8.50464C0.798786 8.63591 0.725037 8.81396 0.725037 8.99961C0.725037 9.18526 0.798786 9.36331 0.930062 9.49458C1.06134 9.62586 1.23939 9.69961 1.42504 9.69961H2.45404C2.63969 9.69961 2.81774 9.62586 2.94901 9.49458C3.08029 9.36331 3.15404 9.18526 3.15404 8.99961C3.15404 8.81396 3.08029 8.63591 2.94901 8.50464C2.81774 8.37336 2.63969 8.29961 2.45404 8.29961Z" fill="#7764FE"/>
<path d="M3.91004 13.1996L3.21004 13.8996C3.14443 13.9647 3.09235 14.0421 3.05681 14.1274C3.02127 14.2127 3.00298 14.3042 3.00298 14.3966C3.00298 14.489 3.02127 14.5805 3.05681 14.6658C3.09235 14.7511 3.14443 14.8285 3.21004 14.8936C3.27544 14.9585 3.35302 15.0098 3.4383 15.0447C3.52359 15.0795 3.61491 15.0971 3.70704 15.0966C3.79916 15.0971 3.89049 15.0795 3.97577 15.0447C4.06106 15.0098 4.13863 14.9585 4.20404 14.8936L4.90404 14.1936C4.9693 14.1283 5.02108 14.0509 5.0564 13.9656C5.09172 13.8803 5.1099 13.7889 5.1099 13.6966C5.1099 13.6043 5.09172 13.5129 5.0564 13.4276C5.02108 13.3424 4.9693 13.2649 4.90404 13.1996C4.83877 13.1343 4.76129 13.0826 4.67601 13.0472C4.59074 13.0119 4.49934 12.9937 4.40704 12.9937C4.31474 12.9937 4.22334 13.0119 4.13806 13.0472C4.05279 13.0826 3.9753 13.1343 3.91004 13.1996Z" fill="#7764FE"/>
<path d="M9.12504 14.9706C8.93939 14.9706 8.76134 15.0444 8.63006 15.1756C8.49879 15.3069 8.42504 15.485 8.42504 15.6706V16.6996C8.42504 16.8853 8.49879 17.0633 8.63006 17.1946C8.76134 17.3259 8.93939 17.3996 9.12504 17.3996C9.31069 17.3996 9.48874 17.3259 9.62001 17.1946C9.75129 17.0633 9.82504 16.8853 9.82504 16.6996V15.6706C9.82504 15.485 9.75129 15.3069 9.62001 15.1756C9.48874 15.0444 9.31069 14.9706 9.12504 14.9706Z" fill="#7764FE"/>
<path d="M14.34 13.1996C14.2734 13.133 14.1943 13.0801 14.1072 13.044C14.0201 13.008 13.9268 12.9894 13.8325 12.9894C13.7383 12.9894 13.645 13.008 13.5579 13.044C13.4708 13.0801 13.3917 13.133 13.325 13.1996C13.2584 13.2663 13.2055 13.3454 13.1695 13.4325C13.1334 13.5195 13.1148 13.6129 13.1148 13.7071C13.1148 13.8014 13.1334 13.8947 13.1695 13.9818C13.2055 14.0688 13.2584 14.148 13.325 14.2146L14.025 14.9146C14.0904 14.9795 14.168 15.0308 14.2533 15.0656C14.3386 15.1005 14.4299 15.1181 14.522 15.1176C14.6142 15.1181 14.7055 15.1005 14.7908 15.0656C14.8761 15.0308 14.9536 14.9795 15.019 14.9146C15.0846 14.8495 15.1367 14.7721 15.1723 14.6868C15.2078 14.6015 15.2261 14.51 15.2261 14.4176C15.2261 14.3252 15.2078 14.2337 15.1723 14.1484C15.1367 14.0631 15.0846 13.9857 15.019 13.9206L14.34 13.1996Z" fill="#7764FE"/>
<path d="M16.825 8.29961H15.796C15.6104 8.29961 15.4323 8.37336 15.3011 8.50464C15.1698 8.63591 15.096 8.81396 15.096 8.99961C15.096 9.18526 15.1698 9.36331 15.3011 9.49458C15.4323 9.62586 15.6104 9.69961 15.796 9.69961H16.825C17.0107 9.69961 17.1887 9.62586 17.32 9.49458C17.4513 9.36331 17.525 9.18526 17.525 8.99961C17.525 8.81396 17.4513 8.63591 17.32 8.50464C17.1887 8.37336 17.0107 8.29961 16.825 8.29961Z" fill="#7764FE"/>
<path d="M13.843 4.98161C14.0261 4.98833 14.2046 4.92298 14.34 4.79961L15.04 4.09961C15.1053 4.03434 15.1571 3.95686 15.1924 3.87158C15.2277 3.78631 15.2459 3.69491 15.2459 3.60261C15.2459 3.51031 15.2277 3.41891 15.1924 3.33364C15.1571 3.24836 15.1053 3.17088 15.04 3.10561C14.9748 3.04034 14.8973 2.98857 14.812 2.95325C14.7267 2.91793 14.6353 2.89975 14.543 2.89975C14.4507 2.89975 14.3593 2.91793 14.2741 2.95325C14.1888 2.98857 14.1113 3.04034 14.046 3.10561L13.346 3.80561C13.279 3.86929 13.2253 3.9456 13.188 4.03015C13.1506 4.11471 13.1304 4.20582 13.1284 4.29823C13.1265 4.39065 13.1428 4.48253 13.1766 4.56859C13.2103 4.65464 13.2608 4.73316 13.325 4.79961C13.3947 4.86329 13.4764 4.91224 13.5654 4.94351C13.6545 4.97479 13.7489 4.98775 13.843 4.98161Z" fill="#7764FE"/>
</svg>
